<?xml version="1.0" encoding="UTF-8"?>
<svg width="1012pt" xmlns:xlink="http://www.w3.org/1999/xlink" xmlns="http://www.w3.org/2000/svg" height="440pt" viewBox="0 0 1012 440" >
 <g transform="translate(136, 112)" style="fill:#ffffff; fill-rule:nonzero; stroke:none; stroke-width:1; stroke-linecap:butt; stroke-linejoin:miter; stroke-dasharray:none;" >
  <path d="M0 0 C0 0 90 54 90 54 C90 54 0 108 0 108 C0 108 0 0 0 0 Z" />
 </g>
 <g transform="translate(136, 112)" style="fill:none; stroke:#000000; stroke-width:2; stroke-linecap:round; stroke-linejoin:round; stroke-dasharray:none;" >
  <path d="M0 0 C0 0 90 54 90 54 C90 54 0 108 0 108 C0 108 0 0 0 0 " />
 </g>
 <g transform="translate(169.578, 159.654)" style="fill:#000000; fill-rule:evenodd; stroke:none; stroke-width:2; stroke-linecap:butt; stroke-linejoin:miter; stroke-dasharray:none;" >
  <path d="M0 14.346 C0 14.346 3.047 0 3.047 0 C3.047 0 5.01 0 5.01 0 C5.01 0 3.75 5.928 3.75 5.928 C3.75 5.928 11.211 5.928 11.211 5.928 C11.211 5.928 12.471 0 12.471 0 C12.471 0 14.434 0 14.434 0 C14.434 0 11.387 14.346 11.387 14.346 C11.387 14.346 9.424 14.346 9.424 14.346 C9.424 14.346 10.85 7.637 10.85 7.637 C10.85 7.637 3.389 7.637 3.389 7.637 C3.389 7.637 1.963 14.346 1.963 14.346 C1.963 14.346 0 14.346 0 14.346 Z" />
 </g>
 <g transform="translate(296, 112)" style="fill:#ffffff; fill-rule:nonzero; stroke:none; stroke-width:1; stroke-linecap:butt; stroke-linejoin:miter; stroke-dasharray:none;" >
  <path d="M0 0 C0 0 90 54 90 54 C90 54 0 108 0 108 C0 108 0 0 0 0 Z" />
 </g>
 <g transform="translate(296, 112)" style="fill:none; stroke:#000000; stroke-width:2; stroke-linecap:round; stroke-linejoin:round; stroke-dasharray:none;" >
  <path d="M0 0 C0 0 90 54 90 54 C90 54 0 108 0 108 C0 108 0 0 0 0 Z" />
 </g>
 <g transform="translate(329.578, 159.654)" style="fill:#000000; fill-rule:evenodd; stroke:none; stroke-width:2; stroke-linecap:butt; stroke-linejoin:miter; stroke-dasharray:none;" >
  <path d="M0 14.346 C0 14.346 3.047 0 3.047 0 C3.047 0 5.01 0 5.01 0 C5.01 0 3.75 5.928 3.75 5.928 C3.75 5.928 11.211 5.928 11.211 5.928 C11.211 5.928 12.471 0 12.471 0 C12.471 0 14.434 0 14.434 0 C14.434 0 11.387 14.346 11.387 14.346 C11.387 14.346 9.424 14.346 9.424 14.346 C9.424 14.346 10.85 7.637 10.85 7.637 C10.85 7.637 3.389 7.637 3.389 7.637 C3.389 7.637 1.963 14.346 1.963 14.346 C1.963 14.346 0 14.346 0 14.346 Z" />
 </g>
 <g transform="translate(456, 112)" style="fill:#ffffff; fill-rule:nonzero; stroke:none; stroke-width:1; stroke-linecap:butt; stroke-linejoin:miter; stroke-dasharray:none;" >
  <path d="M0 0 C0 0 90 54 90 54 C90 54 0 108 0 108 C0 108 0 0 0 0 Z" />
 </g>
 <g transform="translate(456, 112)" style="fill:none; stroke:#000000; stroke-width:2; stroke-linecap:round; stroke-linejoin:round; stroke-dasharray:none;" >
  <path d="M0 0 C0 0 90 54 90 54 C90 54 0 108 0 108 C0 108 0 0 0 0 Z" />
 </g>
 <g transform="translate(489.578, 159.654)" style="fill:#000000; fill-rule:evenodd; stroke:none; stroke-width:2; stroke-linecap:butt; stroke-linejoin:miter; stroke-dasharray:none;" >
  <path d="M0 14.346 C0 14.346 3.047 0 3.047 0 C3.047 0 5.01 0 5.01 0 C5.01 0 3.75 5.928 3.75 5.928 C3.75 5.928 11.211 5.928 11.211 5.928 C11.211 5.928 12.471 0 12.471 0 C12.471 0 14.434 0 14.434 0 C14.434 0 11.387 14.346 11.387 14.346 C11.387 14.346 9.424 14.346 9.424 14.346 C9.424 14.346 10.85 7.637 10.85 7.637 C10.85 7.637 3.389 7.637 3.389 7.637 C3.389 7.637 1.963 14.346 1.963 14.346 C1.963 14.346 0 14.346 0 14.346 Z" />
 </g>
 <g transform="translate(616, 112)" style="fill:#ffffff; fill-rule:nonzero; stroke:none; stroke-width:1; stroke-linecap:butt; stroke-linejoin:miter; stroke-dasharray:none;" >
  <path d="M0 0 C0 0 90 54 90 54 C90 54 0 108 0 108 C0 108 0 0 0 0 Z" />
 </g>
 <g transform="translate(616, 112)" style="fill:none; stroke:#000000; stroke-width:2; stroke-linecap:round; stroke-linejoin:round; stroke-dasharray:none;" >
  <path d="M0 0 C0 0 90 54 90 54 C90 54 0 108 0 108 C0 108 0 0 0 0 Z" />
 </g>
 <g transform="translate(649.578, 159.654)" style="fill:#000000; fill-rule:evenodd; stroke:none; stroke-width:2; stroke-linecap:butt; stroke-linejoin:miter; stroke-dasharray:none;" >
  <path d="M0 14.346 C0 14.346 3.047 0 3.047 0 C3.047 0 5.01 0 5.01 0 C5.01 0 3.75 5.928 3.75 5.928 C3.75 5.928 11.211 5.928 11.211 5.928 C11.211 5.928 12.471 0 12.471 0 C12.471 0 14.434 0 14.434 0 C14.434 0 11.387 14.346 11.387 14.346 C11.387 14.346 9.424 14.346 9.424 14.346 C9.424 14.346 10.85 7.637 10.85 7.637 C10.85 7.637 3.389 7.637 3.389 7.637 C3.389 7.637 1.963 14.346 1.963 14.346 C1.963 14.346 0 14.346 0 14.346 Z" />
 </g>
 <g transform="translate(776, 112)" style="fill:#ffffff; fill-rule:nonzero; stroke:none; stroke-width:1; stroke-linecap:butt; stroke-linejoin:miter; stroke-dasharray:none;" >
  <path d="M0 0 C0 0 90 54 90 54 C90 54 0 108 0 108 C0 108 0 0 0 0 Z" />
 </g>
 <g transform="translate(776, 112)" style="fill:none; stroke:#000000; stroke-width:2; stroke-linecap:round; stroke-linejoin:round; stroke-dasharray:none;" >
  <path d="M0 0 C0 0 90 54 90 54 C90 54 0 108 0 108 C0 108 0 0 0 0 Z" />
 </g>
 <g transform="translate(809.578, 159.654)" style="fill:#000000; fill-rule:evenodd; stroke:none; stroke-width:2; stroke-linecap:butt; stroke-linejoin:miter; stroke-dasharray:none;" >
  <path d="M0 14.346 C0 14.346 3.047 0 3.047 0 C3.047 0 5.01 0 5.01 0 C5.01 0 3.75 5.928 3.75 5.928 C3.75 5.928 11.211 5.928 11.211 5.928 C11.211 5.928 12.471 0 12.471 0 C12.471 0 14.434 0 14.434 0 C14.434 0 11.387 14.346 11.387 14.346 C11.387 14.346 9.424 14.346 9.424 14.346 C9.424 14.346 10.85 7.637 10.85 7.637 C10.85 7.637 3.389 7.637 3.389 7.637 C3.389 7.637 1.963 14.346 1.963 14.346 C1.963 14.346 0 14.346 0 14.346 Z" />
 </g>
 <g transform="translate(40, 318)" style="fill:#ffffff; fill-rule:nonzero; stroke:none; stroke-width:1; stroke-linecap:butt; stroke-linejoin:miter; stroke-dasharray:none;" >
  <path d="M0 0 C0 0 122 0 122 0 C122 0 122 74 122 74 C122 74 0 74 0 74 C0 74 0 0 0 0 Z" />
 </g>
 <g transform="translate(40, 318)" style="fill:none; stroke:#000000; stroke-width:2; stroke-linecap:round; stroke-linejoin:round; stroke-dasharray:none;" >
  <path d="M0 0 C0 0 122 0 122 0 C122 0 122 74 122 74 C122 74 0 74 0 74 C0 74 0 0 0 0 Z" />
 </g>
 <g transform="translate(56.8711, 348.654)" style="fill:#000000; fill-rule:evenodd; stroke:none; stroke-width:2; stroke-linecap:butt; stroke-linejoin:miter; stroke-dasharray:none;" >
  <path d="M1.9629 12.686 C1.9629 12.686 5.3477 12.686 5.3477 12.686 C5.9902 12.686 6.5176 12.617 6.9307 12.481 C7.6689 12.227 8.2725 11.739 8.7432 11.016 C9.1182 10.436 9.3887 9.694 9.5537 8.789 C9.6494 8.248 9.6973 7.747 9.6973 7.285 C9.6973 5.508 9.3516 4.127 8.6621 3.145 C7.9717 2.161 6.8613 1.67 5.3291 1.67 C5.3291 1.67 1.9629 1.67 1.9629 1.67 C1.9629 1.67 1.9629 12.686 1.9629 12.686 Z M0 14.346 C0 14.346 0 0 0 0 C0 0 5.7285 0 5.7285 0 C7.6738 0 9.1826 0.7 10.2539 2.1 C11.2109 3.363 11.6894 4.981 11.6894 6.953 C11.6894 8.477 11.4062 9.854 10.8418 11.084 C9.8467 13.258 8.1357 14.346 5.71 14.346 C5.71 14.346 0 14.346 0 14.346 Z" />
 </g>
 <g transform="translate(70.3262, 352.238)" style="fill:#000000; fill-rule:evenodd; stroke:none; stroke-width:2; stroke-linecap:butt; stroke-linejoin:miter; stroke-dasharray:none;" >
  <path d="M4.8291 9.619 C5.9804 9.619 6.7705 9.178 7.1992 8.297 C7.6269 7.416 7.8418 6.436 7.8418 5.357 C7.8418 4.381 7.6865 3.588 7.3779 2.977 C6.8886 2.014 6.0449 1.533 4.8476 1.533 C3.7851 1.533 3.0127 1.943 2.5302 2.762 C2.0478 3.581 1.8066 4.57 1.8066 5.727 C1.8066 6.839 2.0478 7.766 2.5302 8.507 C3.0127 9.248 3.7793 9.619 4.8291 9.619 Z M4.8965 0 C6.2343 0 7.3662 0.449 8.291 1.346 C9.2148 2.244 9.6777 3.565 9.6777 5.308 C9.6777 6.992 9.2695 8.384 8.455 9.484 C7.6406 10.583 6.3769 11.133 4.664 11.133 C3.2353 11.133 2.1006 10.647 1.2597 9.674 C0.4199 8.701 0 7.396 0 5.756 C0 4 0.4424 2.602 1.3281 1.561 C2.2138 0.52 3.4033 0 4.8965 0 Z" />
 </g>
 <g transform="translate(81.3262, 352.238)" style="fill:#000000; fill-rule:evenodd; stroke:none; stroke-width:2; stroke-linecap:butt; stroke-linejoin:miter; stroke-dasharray:none;" >
  <path d="M4.7461 0 C5.9238 0 6.8828 0.286 7.622 0.86 C8.3603 1.432 8.8047 2.418 8.955 3.819 C8.955 3.819 7.2461 3.819 7.2461 3.819 C7.1416 3.174 6.9043 2.638 6.5332 2.212 C6.1621 1.785 5.5664 1.573 4.7461 1.573 C3.6259 1.573 2.8252 2.118 2.3437 3.21 C2.0312 3.919 1.875 4.794 1.875 5.834 C1.875 6.881 2.0957 7.762 2.539 8.478 C2.9814 9.193 3.6777 9.551 4.6289 9.551 C5.3574 9.551 5.9355 9.328 6.3623 8.884 C6.7881 8.44 7.083 7.832 7.2461 7.061 C7.2461 7.061 8.955 7.061 8.955 7.061 C8.7597 8.448 8.2715 9.461 7.4902 10.103 C6.709 10.743 5.709 11.065 4.4922 11.065 C3.125 11.065 2.0342 10.565 1.2207 9.566 C0.4062 8.566 0 7.318 0 5.821 C0 3.985 0.4453 2.555 1.3379 1.533 C2.2295 0.511 3.3652 0 4.7461 0 Z" />
 </g>
 <g transform="translate(92.0098, 352.541)" style="fill:#000000; fill-rule:evenodd; stroke:none; stroke-width:2; stroke-linecap:butt; stroke-linejoin:miter; stroke-dasharray:none;" >
  <path d="M0 0 C0 0 1.7968 0 1.7968 0 C1.7968 0 1.7968 6.943 1.7968 6.943 C1.7968 7.477 1.8789 7.913 2.0439 8.252 C2.3476 8.877 2.915 9.189 3.7461 9.189 C4.9384 9.189 5.75 8.643 6.1806 7.549 C6.415 6.963 6.5332 6.158 6.5332 5.137 C6.5332 5.137 6.5332 0 6.5332 0 C6.5332 0 8.2912 0 8.2912 0 C8.2912 0 8.2912 10.459 8.2912 10.459 C8.2912 10.459 6.6308 10.459 6.6308 10.459 C6.6308 10.459 6.6504 8.916 6.6504 8.916 C6.4257 9.313 6.1484 9.648 5.8154 9.922 C5.1582 10.469 4.3593 10.742 3.4199 10.742 C1.957 10.742 0.9609 10.244 0.4306 9.248 C0.1435 8.714 0 8.001 0 7.109 C0 7.109 0 0 0 0 Z" />
 </g>
 <g transform="translate(103.289, 352.307)" style="fill:#000000; fill-rule:evenodd; stroke:none; stroke-width:2; stroke-linecap:butt; stroke-linejoin:miter; stroke-dasharray:none;" >
  <path d="M0 10.693 C0 10.693 0 0.234 0 0.234 C0 0.234 1.738 0.234 1.738 0.234 C1.738 0.234 1.738 1.718 1.738 1.718 C2.154 1.204 2.532 0.83 2.871 0.595 C3.45 0.198 4.107 0 4.844 0 C5.677 0 6.348 0.205 6.856 0.615 C7.142 0.849 7.402 1.194 7.637 1.65 C8.027 1.089 8.486 0.674 9.014 0.405 C9.541 0.134 10.133 0 10.791 0 C12.197 0 13.154 0.507 13.662 1.523 C13.936 2.07 14.072 2.805 14.072 3.73 C14.072 3.73 14.072 10.693 14.072 10.693 C14.072 10.693 12.246 10.693 12.246 10.693 C12.246 10.693 12.246 3.427 12.246 3.427 C12.246 2.73 12.071 2.252 11.724 1.992 C11.375 1.731 10.95 1.601 10.449 1.601 C9.759 1.601 9.165 1.832 8.667 2.295 C8.169 2.756 7.92 3.528 7.92 4.609 C7.92 4.609 7.92 10.693 7.92 10.693 C7.92 10.693 6.133 10.693 6.133 10.693 C6.133 10.693 6.133 3.867 6.133 3.867 C6.133 3.157 6.048 2.639 5.879 2.314 C5.611 1.826 5.113 1.582 4.385 1.582 C3.721 1.582 3.116 1.839 2.573 2.353 C2.029 2.867 1.758 3.798 1.758 5.146 C1.758 5.146 1.758 10.693 1.758 10.693 C1.758 10.693 0 10.693 0 10.693 Z" />
 </g>
 <g transform="translate(119.443, 352.307)" style="fill:#000000; fill-rule:evenodd; stroke:none; stroke-width:2; stroke-linecap:butt; stroke-linejoin:miter; stroke-dasharray:none;" >
  <path d="M4.911 0 C5.649 0 6.364 0.173 7.056 0.522 C7.748 0.87 8.276 1.321 8.638 1.875 C8.988 2.402 9.22 3.017 9.336 3.72 C9.44 4.202 9.493 4.97 9.493 6.025 C9.493 6.025 1.885 6.025 1.885 6.025 C1.917 7.089 2.165 7.942 2.631 8.586 C3.096 9.228 3.816 9.55 4.791 9.55 C5.703 9.55 6.429 9.246 6.972 8.637 C7.276 8.285 7.491 7.876 7.618 7.412 C7.618 7.412 9.346 7.412 9.346 7.412 C9.3 7.796 9.149 8.223 8.892 8.696 C8.634 9.168 8.347 9.553 8.031 9.853 C7.501 10.374 6.845 10.725 6.064 10.908 C5.643 11.011 5.168 11.064 4.639 11.064 C3.345 11.064 2.248 10.59 1.349 9.643 C0.45 8.696 0 7.369 0 5.664 C0 3.984 0.453 2.62 1.359 1.572 C2.264 0.523 3.449 0 4.911 0 Z M1.924 4.629 C1.924 4.629 7.686 4.629 7.686 4.629 C7.615 3.867 7.45 3.257 7.192 2.802 C6.714 1.956 5.916 1.533 4.8 1.533 C3.999 1.533 3.328 1.824 2.786 2.407 C2.244 2.989 1.955 3.73 1.924 4.629 Z" />
 </g>
 <g transform="translate(131.039, 352.307)" style="fill:#000000; fill-rule:evenodd; stroke:none; stroke-width:2; stroke-linecap:butt; stroke-linejoin:miter; stroke-dasharray:none;" >
  <path d="M0 10.693 C0 10.693 0 0.234 0 0.234 C0 0.234 1.67 0.234 1.67 0.234 C1.67 0.234 1.67 1.718 1.67 1.718 C2.164 1.106 2.689 0.667 3.242 0.4 C3.795 0.132 4.41 0 5.088 0 C6.572 0 7.574 0.517 8.096 1.552 C8.382 2.119 8.525 2.929 8.525 3.984 C8.525 3.984 8.525 10.693 8.525 10.693 C8.525 10.693 6.738 10.693 6.738 10.693 C6.738 10.693 6.738 4.101 6.738 4.101 C6.738 3.463 6.644 2.949 6.455 2.558 C6.143 1.907 5.576 1.582 4.756 1.582 C4.339 1.582 3.997 1.624 3.731 1.709 C3.248 1.851 2.825 2.138 2.461 2.568 C2.168 2.913 1.978 3.269 1.89 3.637 C1.802 4.005 1.758 4.531 1.758 5.214 C1.758 5.214 1.758 10.693 1.758 10.693 C1.758 10.693 0 10.693 0 10.693 Z" />
 </g>
 <g transform="translate(141.225, 349.621)" style="fill:#000000; fill-rule:evenodd; stroke:none; stroke-width:2; stroke-linecap:butt; stroke-linejoin:miter; stroke-dasharray:none;" >
  <path d="M1.416 2.92 C1.416 2.92 1.416 0 1.416 0 C1.416 0 3.193 0 3.193 0 C3.193 0 3.193 2.92 3.193 2.92 C3.193 2.92 4.863 2.92 4.863 2.92 C4.863 2.92 4.863 4.356 4.863 4.356 C4.863 4.356 3.193 4.356 3.193 4.356 C3.193 4.356 3.193 11.182 3.193 11.182 C3.193 11.546 3.316 11.79 3.564 11.914 C3.701 11.985 3.928 12.022 4.248 12.022 C4.332 12.022 4.423 12.019 4.521 12.015 C4.619 12.011 4.732 11.999 4.863 11.983 C4.863 11.983 4.863 13.379 4.863 13.379 C4.661 13.438 4.451 13.48 4.233 13.506 C4.014 13.531 3.779 13.545 3.525 13.545 C2.705 13.545 2.148 13.335 1.855 12.915 C1.562 12.495 1.416 11.949 1.416 11.279 C1.416 11.279 1.416 4.356 1.416 4.356 C1.416 4.356 0 4.356 0 4.356 C0 4.356 0 2.92 0 2.92 C0 2.92 1.416 2.92 1.416 2.92 Z" />
 </g>
 <g transform="translate(64, 226)" style="fill:#ffffff; fill-rule:nonzero; stroke:none; stroke-width:1; stroke-linecap:butt; stroke-linejoin:miter; stroke-dasharray:none;" >
  <path d="M0 56.163 C0 56.163 37 0 37 0 C37 0 74 56.163 74 56.163 C74 56.163 0 56.163 0 56.163 Z" />
 </g>
 <g transform="translate(64, 226)" style="fill:none; stroke:#000000; stroke-width:2; stroke-linecap:round; stroke-linejoin:round; stroke-dasharray:none;" >
  <path d="M0 56.163 C0 56.163 37 0 37 0 C37 0 74 56.163 74 56.163 C74 56.163 0 56.163 0 56.163 Z" />
 </g>
 <g transform="translate(94.5957, 251.579)" style="fill:#000000; fill-rule:evenodd; stroke:none; stroke-width:2; stroke-linecap:butt; stroke-linejoin:miter; stroke-dasharray:none;" >
  <path d="M14.3943 10.131 C14.3943 10.131 0 7.074 0 7.074 C0 7.074 0 5.317 0 5.317 C0 5.317 5.3516 6.459 5.3516 6.459 C4.8242 5.926 4.4531 5.47 4.2383 5.092 C3.8672 4.447 3.6816 3.702 3.6816 2.856 C3.6816 1.339 4.2119 0.424 5.2734 0.111 C5.5283 0.038 5.8273 0 6.1703 0 C6.6043 0 7.1103 0.06 7.6853 0.18 C7.6853 0.18 14.3943 1.606 14.3943 1.606 C14.3943 1.606 14.3943 3.412 14.3943 3.412 C14.3943 3.412 7.8023 2.016 7.8023 2.016 C7.3563 1.922 6.9763 1.874 6.6693 1.874 C6.4493 1.874 6.2613 1.899 6.1133 1.947 C5.5403 2.15 5.2539 2.69 5.2539 3.568 C5.2539 4.298 5.5043 5.011 6.0063 5.707 C6.5073 6.404 7.4543 6.902 8.8473 7.201 C8.8473 7.201 14.3943 8.373 14.3943 8.373 C14.3943 8.373 14.3943 10.131 14.3943 10.131 Z" />
 </g>
 <g transform="translate(101, 302.963)" style="fill:none; stroke:#000000; stroke-width:2; stroke-linecap:round; stroke-linejoin:round; stroke-dasharray:none;" >
  <path d="M0 14.037 C0 14.037 0 0 0 0 " />
 </g>
 <g transform="translate(95, 286.963)" style="fill:#000000; fill-rule:nonzero; stroke:none; stroke-width:1; stroke-linecap:butt; stroke-linejoin:miter; stroke-dasharray:none;" >
  <path d="M6 0 C6 0 0 16 0 16 C0 16 12 16 12 16 C12 16 6 0 6 0 Z" />
 </g>
 <g transform="translate(95, 286.963)" style="fill:none; stroke:#000000; stroke-width:2; stroke-linecap:butt; stroke-linejoin:miter; stroke-dasharray:none;" >
  <path d="M6 0 C6 0 0 16 0 16 C0 16 12 16 12 16 C12 16 6 0 6 0 Z" />
 </g>
 <g transform="translate(198, 318)" style="fill:#ffffff; fill-rule:nonzero; stroke:none; stroke-width:1; stroke-linecap:butt; stroke-linejoin:miter; stroke-dasharray:none;" >
  <path d="M0 0 C0 0 122 0 122 0 C122 0 122 74 122 74 C122 74 0 74 0 74 C0 74 0 0 0 0 Z" />
 </g>
 <g transform="translate(198, 318)" style="fill:none; stroke:#000000; stroke-width:2; stroke-linecap:round; stroke-linejoin:round; stroke-dasharray:none;" >
  <path d="M0 0 C0 0 122 0 122 0 C122 0 122 74 122 74 C122 74 0 74 0 74 C0 74 0 0 0 0 Z" />
 </g>
 <g transform="translate(214.871, 348.654)" style="fill:#000000; fill-rule:evenodd; stroke:none; stroke-width:2; stroke-linecap:butt; stroke-linejoin:miter; stroke-dasharray:none;" >
  <path d="M1.963 12.686 C1.963 12.686 5.348 12.686 5.348 12.686 C5.99 12.686 6.518 12.617 6.931 12.481 C7.669 12.227 8.273 11.739 8.743 11.016 C9.118 10.436 9.389 9.694 9.554 8.789 C9.65 8.248 9.697 7.747 9.697 7.285 C9.697 5.508 9.352 4.127 8.662 3.145 C7.972 2.161 6.861 1.67 5.329 1.67 C5.329 1.67 1.963 1.67 1.963 1.67 C1.963 1.67 1.963 12.686 1.963 12.686 Z M0 14.346 C0 14.346 0 0 0 0 C0 0 5.729 0 5.729 0 C7.674 0 9.183 0.7 10.254 2.1 C11.211 3.363 11.69 4.981 11.69 6.953 C11.69 8.477 11.406 9.854 10.842 11.084 C9.847 13.258 8.136 14.346 5.71 14.346 C5.71 14.346 0 14.346 0 14.346 Z" />
 </g>
 <g transform="translate(228.326, 352.238)" style="fill:#000000; fill-rule:evenodd; stroke:none; stroke-width:2; stroke-linecap:butt; stroke-linejoin:miter; stroke-dasharray:none;" >
  <path d="M4.829 9.619 C5.981 9.619 6.771 9.178 7.199 8.297 C7.627 7.416 7.842 6.436 7.842 5.357 C7.842 4.381 7.687 3.588 7.378 2.977 C6.889 2.014 6.045 1.533 4.848 1.533 C3.785 1.533 3.013 1.943 2.53 2.762 C2.048 3.581 1.807 4.57 1.807 5.727 C1.807 6.839 2.048 7.766 2.53 8.507 C3.013 9.248 3.779 9.619 4.829 9.619 Z M4.897 0 C6.235 0 7.366 0.449 8.291 1.346 C9.215 2.244 9.678 3.565 9.678 5.308 C9.678 6.992 9.27 8.384 8.455 9.484 C7.641 10.583 6.377 11.133 4.664 11.133 C3.236 11.133 2.101 10.647 1.26 9.674 C0.42 8.701 0 7.396 0 5.756 C0 4 0.443 2.602 1.328 1.561 C2.214 0.52 3.403 0 4.897 0 Z" />
 </g>
 <g transform="translate(239.326, 352.238)" style="fill:#000000; fill-rule:evenodd; stroke:none; stroke-width:2; stroke-linecap:butt; stroke-linejoin:miter; stroke-dasharray:none;" >
  <path d="M4.746 0 C5.924 0 6.883 0.286 7.622 0.86 C8.361 1.432 8.805 2.418 8.955 3.819 C8.955 3.819 7.246 3.819 7.246 3.819 C7.142 3.174 6.904 2.638 6.533 2.212 C6.162 1.785 5.567 1.573 4.746 1.573 C3.626 1.573 2.825 2.118 2.344 3.21 C2.031 3.919 1.875 4.794 1.875 5.834 C1.875 6.881 2.096 7.762 2.539 8.478 C2.982 9.193 3.678 9.551 4.629 9.551 C5.358 9.551 5.936 9.328 6.362 8.884 C6.788 8.44 7.083 7.832 7.246 7.061 C7.246 7.061 8.955 7.061 8.955 7.061 C8.76 8.448 8.272 9.461 7.49 10.103 C6.709 10.743 5.709 11.065 4.492 11.065 C3.125 11.065 2.034 10.565 1.221 9.566 C0.406 8.566 0 7.318 0 5.821 C0 3.985 0.445 2.555 1.338 1.533 C2.23 0.511 3.365 0 4.746 0 Z" />
 </g>
 <g transform="translate(250.01, 352.541)" style="fill:#000000; fill-rule:evenodd; stroke:none; stroke-width:2; stroke-linecap:butt; stroke-linejoin:miter; stroke-dasharray:none;" >
  <path d="M0 0 C0 0 1.797 0 1.797 0 C1.797 0 1.797 6.943 1.797 6.943 C1.797 7.477 1.879 7.913 2.044 8.252 C2.347 8.877 2.915 9.189 3.746 9.189 C4.938 9.189 5.75 8.643 6.18 7.549 C6.415 6.963 6.533 6.158 6.533 5.137 C6.533 5.137 6.533 0 6.533 0 C6.533 0 8.291 0 8.291 0 C8.291 0 8.291 10.459 8.291 10.459 C8.291 10.459 6.631 10.459 6.631 10.459 C6.631 10.459 6.65 8.916 6.65 8.916 C6.426 9.313 6.148 9.648 5.815 9.922 C5.158 10.469 4.359 10.742 3.42 10.742 C1.957 10.742 0.961 10.244 0.43 9.248 C0.143 8.714 0 8.001 0 7.109 C0 7.109 0 0 0 0 Z" />
 </g>
 <g transform="translate(261.289, 352.307)" style="fill:#000000; fill-rule:evenodd; stroke:none; stroke-width:2; stroke-linecap:butt; stroke-linejoin:miter; stroke-dasharray:none;" >
  <path d="M0 10.693 C0 10.693 0 0.234 0 0.234 C0 0.234 1.738 0.234 1.738 0.234 C1.738 0.234 1.738 1.718 1.738 1.718 C2.154 1.204 2.532 0.83 2.871 0.595 C3.45 0.198 4.107 0 4.844 0 C5.677 0 6.348 0.205 6.856 0.615 C7.142 0.849 7.402 1.194 7.637 1.65 C8.027 1.089 8.486 0.674 9.014 0.405 C9.541 0.134 10.133 0 10.791 0 C12.197 0 13.154 0.507 13.662 1.523 C13.936 2.07 14.072 2.805 14.072 3.73 C14.072 3.73 14.072 10.693 14.072 10.693 C14.072 10.693 12.246 10.693 12.246 10.693 C12.246 10.693 12.246 3.427 12.246 3.427 C12.246 2.73 12.071 2.252 11.724 1.992 C11.375 1.731 10.95 1.601 10.449 1.601 C9.759 1.601 9.165 1.832 8.667 2.295 C8.169 2.756 7.92 3.528 7.92 4.609 C7.92 4.609 7.92 10.693 7.92 10.693 C7.92 10.693 6.133 10.693 6.133 10.693 C6.133 10.693 6.133 3.867 6.133 3.867 C6.133 3.157 6.048 2.639 5.879 2.314 C5.611 1.826 5.113 1.582 4.385 1.582 C3.721 1.582 3.116 1.839 2.573 2.353 C2.029 2.867 1.758 3.798 1.758 5.146 C1.758 5.146 1.758 10.693 1.758 10.693 C1.758 10.693 0 10.693 0 10.693 Z" />
 </g>
 <g transform="translate(277.443, 352.307)" style="fill:#000000; fill-rule:evenodd; stroke:none; stroke-width:2; stroke-linecap:butt; stroke-linejoin:miter; stroke-dasharray:none;" >
  <path d="M4.911 0 C5.649 0 6.364 0.173 7.056 0.522 C7.748 0.87 8.276 1.321 8.638 1.875 C8.988 2.402 9.22 3.017 9.336 3.72 C9.44 4.202 9.493 4.97 9.493 6.025 C9.493 6.025 1.885 6.025 1.885 6.025 C1.917 7.089 2.165 7.942 2.631 8.586 C3.096 9.228 3.816 9.55 4.791 9.55 C5.703 9.55 6.429 9.246 6.972 8.637 C7.276 8.285 7.491 7.876 7.618 7.412 C7.618 7.412 9.346 7.412 9.346 7.412 C9.3 7.796 9.149 8.223 8.892 8.696 C8.634 9.168 8.347 9.553 8.031 9.853 C7.501 10.374 6.845 10.725 6.064 10.908 C5.643 11.011 5.168 11.064 4.639 11.064 C3.345 11.064 2.248 10.59 1.349 9.643 C0.45 8.696 0 7.369 0 5.664 C0 3.984 0.453 2.62 1.359 1.572 C2.264 0.523 3.449 0 4.911 0 Z M1.924 4.629 C1.924 4.629 7.686 4.629 7.686 4.629 C7.615 3.867 7.45 3.257 7.192 2.802 C6.714 1.956 5.916 1.533 4.8 1.533 C3.999 1.533 3.328 1.824 2.786 2.407 C2.244 2.989 1.955 3.73 1.924 4.629 Z" />
 </g>
 <g transform="translate(289.039, 352.307)" style="fill:#000000; fill-rule:evenodd; stroke:none; stroke-width:2; stroke-linecap:butt; stroke-linejoin:miter; stroke-dasharray:none;" >
  <path d="M0 10.693 C0 10.693 0 0.234 0 0.234 C0 0.234 1.67 0.234 1.67 0.234 C1.67 0.234 1.67 1.718 1.67 1.718 C2.164 1.106 2.689 0.667 3.242 0.4 C3.795 0.132 4.41 0 5.088 0 C6.572 0 7.574 0.517 8.096 1.552 C8.382 2.119 8.525 2.929 8.525 3.984 C8.525 3.984 8.525 10.693 8.525 10.693 C8.525 10.693 6.738 10.693 6.738 10.693 C6.738 10.693 6.738 4.101 6.738 4.101 C6.738 3.463 6.644 2.949 6.455 2.558 C6.143 1.907 5.576 1.582 4.756 1.582 C4.339 1.582 3.997 1.624 3.731 1.709 C3.248 1.851 2.825 2.138 2.461 2.568 C2.168 2.913 1.978 3.269 1.89 3.637 C1.802 4.005 1.758 4.531 1.758 5.214 C1.758 5.214 1.758 10.693 1.758 10.693 C1.758 10.693 0 10.693 0 10.693 Z" />
 </g>
 <g transform="translate(299.225, 349.621)" style="fill:#000000; fill-rule:evenodd; stroke:none; stroke-width:2; stroke-linecap:butt; stroke-linejoin:miter; stroke-dasharray:none;" >
  <path d="M1.416 2.92 C1.416 2.92 1.416 0 1.416 0 C1.416 0 3.193 0 3.193 0 C3.193 0 3.193 2.92 3.193 2.92 C3.193 2.92 4.863 2.92 4.863 2.92 C4.863 2.92 4.863 4.356 4.863 4.356 C4.863 4.356 3.193 4.356 3.193 4.356 C3.193 4.356 3.193 11.182 3.193 11.182 C3.193 11.546 3.316 11.79 3.564 11.914 C3.701 11.985 3.928 12.022 4.248 12.022 C4.332 12.022 4.423 12.019 4.521 12.015 C4.619 12.011 4.732 11.999 4.863 11.983 C4.863 11.983 4.863 13.379 4.863 13.379 C4.661 13.438 4.451 13.48 4.233 13.506 C4.014 13.531 3.779 13.545 3.525 13.545 C2.705 13.545 2.148 13.335 1.855 12.915 C1.562 12.495 1.416 11.949 1.416 11.279 C1.416 11.279 1.416 4.356 1.416 4.356 C1.416 4.356 0 4.356 0 4.356 C0 4.356 0 2.92 0 2.92 C0 2.92 1.416 2.92 1.416 2.92 Z" />
 </g>
 <g transform="translate(222, 226.001)" style="fill:#ffffff; fill-rule:nonzero; stroke:none; stroke-width:1; stroke-linecap:butt; stroke-linejoin:miter; stroke-dasharray:none;" >
  <path d="M0 56.162 C0 56.162 37 0 37 0 C37 0 74 56.162 74 56.162 C74 56.162 0 56.162 0 56.162 Z" />
 </g>
 <g transform="translate(222, 226.001)" style="fill:none; stroke:#000000; stroke-width:2; stroke-linecap:round; stroke-linejoin:round; stroke-dasharray:none;" >
  <path d="M0 56.162 C0 56.162 37 0 37 0 C37 0 74 56.162 74 56.162 C74 56.162 0 56.162 0 56.162 Z" />
 </g>
 <g transform="translate(252.596, 251.579)" style="fill:#000000; fill-rule:evenodd; stroke:none; stroke-width:2; stroke-linecap:butt; stroke-linejoin:miter; stroke-dasharray:none;" >
  <path d="M14.394 10.131 C14.394 10.131 0 7.074 0 7.074 C0 7.074 0 5.317 0 5.317 C0 5.317 5.351 6.459 5.351 6.459 C4.824 5.926 4.453 5.47 4.238 5.092 C3.867 4.447 3.681 3.702 3.681 2.856 C3.681 1.339 4.212 0.424 5.273 0.111 C5.528 0.038 5.827 0 6.17 0 C6.604 0 7.11 0.06 7.685 0.18 C7.685 0.18 14.394 1.606 14.394 1.606 C14.394 1.606 14.394 3.412 14.394 3.412 C14.394 3.412 7.802 2.016 7.802 2.016 C7.356 1.922 6.976 1.874 6.669 1.874 C6.449 1.874 6.261 1.899 6.113 1.947 C5.54 2.15 5.254 2.69 5.254 3.568 C5.254 4.298 5.504 5.011 6.006 5.707 C6.507 6.404 7.454 6.902 8.847 7.201 C8.847 7.201 14.394 8.373 14.394 8.373 C14.394 8.373 14.394 10.131 14.394 10.131 Z" />
 </g>
 <g transform="translate(259, 302.963)" style="fill:none; stroke:#000000; stroke-width:2; stroke-linecap:round; stroke-linejoin:round; stroke-dasharray:none;" >
  <path d="M0 14.037 C0 14.037 0 0 0 0 " />
 </g>
 <g transform="translate(253, 286.963)" style="fill:#000000; fill-rule:nonzero; stroke:none; stroke-width:1; stroke-linecap:butt; stroke-linejoin:miter; stroke-dasharray:none;" >
  <path d="M6 0 C6 0 0 16 0 16 C0 16 12 16 12 16 C12 16 6 0 6 0 Z" />
 </g>
 <g transform="translate(253, 286.963)" style="fill:none; stroke:#000000; stroke-width:2; stroke-linecap:butt; stroke-linejoin:miter; stroke-dasharray:none;" >
  <path d="M6 0 C6 0 0 16 0 16 C0 16 12 16 12 16 C12 16 6 0 6 0 Z" />
 </g>
 <g transform="translate(356, 318)" style="fill:#ffffff; fill-rule:nonzero; stroke:none; stroke-width:1; stroke-linecap:butt; stroke-linejoin:miter; stroke-dasharray:none;" >
  <path d="M0 0 C0 0 122 0 122 0 C122 0 122 74 122 74 C122 74 0 74 0 74 C0 74 0 0 0 0 Z" />
 </g>
 <g transform="translate(356, 318)" style="fill:none; stroke:#000000; stroke-width:2; stroke-linecap:round; stroke-linejoin:round; stroke-dasharray:none;" >
  <path d="M0 0 C0 0 122 0 122 0 C122 0 122 74 122 74 C122 74 0 74 0 74 C0 74 0 0 0 0 Z" />
 </g>
 <g transform="translate(372.871, 348.654)" style="fill:#000000; fill-rule:evenodd; stroke:none; stroke-width:2; stroke-linecap:butt; stroke-linejoin:miter; stroke-dasharray:none;" >
  <path d="M1.963 12.686 C1.963 12.686 5.348 12.686 5.348 12.686 C5.99 12.686 6.518 12.617 6.931 12.481 C7.669 12.227 8.273 11.739 8.743 11.016 C9.118 10.436 9.389 9.694 9.554 8.789 C9.65 8.248 9.697 7.747 9.697 7.285 C9.697 5.508 9.352 4.127 8.662 3.145 C7.972 2.161 6.861 1.67 5.329 1.67 C5.329 1.67 1.963 1.67 1.963 1.67 C1.963 1.67 1.963 12.686 1.963 12.686 Z M0 14.346 C0 14.346 0 0 0 0 C0 0 5.729 0 5.729 0 C7.674 0 9.183 0.7 10.254 2.1 C11.211 3.363 11.69 4.981 11.69 6.953 C11.69 8.477 11.406 9.854 10.842 11.084 C9.847 13.258 8.136 14.346 5.71 14.346 C5.71 14.346 0 14.346 0 14.346 Z" />
 </g>
 <g transform="translate(386.326, 352.238)" style="fill:#000000; fill-rule:evenodd; stroke:none; stroke-width:2; stroke-linecap:butt; stroke-linejoin:miter; stroke-dasharray:none;" >
  <path d="M4.829 9.619 C5.981 9.619 6.771 9.178 7.199 8.297 C7.627 7.416 7.842 6.436 7.842 5.357 C7.842 4.381 7.687 3.588 7.378 2.977 C6.889 2.014 6.045 1.533 4.848 1.533 C3.785 1.533 3.013 1.943 2.53 2.762 C2.048 3.581 1.807 4.57 1.807 5.727 C1.807 6.839 2.048 7.766 2.53 8.507 C3.013 9.248 3.779 9.619 4.829 9.619 Z M4.897 0 C6.235 0 7.366 0.449 8.291 1.346 C9.215 2.244 9.678 3.565 9.678 5.308 C9.678 6.992 9.27 8.384 8.455 9.484 C7.641 10.583 6.377 11.133 4.664 11.133 C3.236 11.133 2.101 10.647 1.26 9.674 C0.42 8.701 0 7.396 0 5.756 C0 4 0.443 2.602 1.328 1.561 C2.214 0.52 3.403 0 4.897 0 Z" />
 </g>
 <g transform="translate(397.326, 352.238)" style="fill:#000000; fill-rule:evenodd; stroke:none; stroke-width:2; stroke-linecap:butt; stroke-linejoin:miter; stroke-dasharray:none;" >
  <path d="M4.746 0 C5.924 0 6.883 0.286 7.622 0.86 C8.361 1.432 8.805 2.418 8.955 3.819 C8.955 3.819 7.246 3.819 7.246 3.819 C7.142 3.174 6.904 2.638 6.533 2.212 C6.162 1.785 5.567 1.573 4.746 1.573 C3.626 1.573 2.825 2.118 2.344 3.21 C2.031 3.919 1.875 4.794 1.875 5.834 C1.875 6.881 2.096 7.762 2.539 8.478 C2.982 9.193 3.678 9.551 4.629 9.551 C5.358 9.551 5.936 9.328 6.362 8.884 C6.788 8.44 7.083 7.832 7.246 7.061 C7.246 7.061 8.955 7.061 8.955 7.061 C8.76 8.448 8.272 9.461 7.49 10.103 C6.709 10.743 5.709 11.065 4.492 11.065 C3.125 11.065 2.034 10.565 1.221 9.566 C0.406 8.566 0 7.318 0 5.821 C0 3.985 0.445 2.555 1.338 1.533 C2.23 0.511 3.365 0 4.746 0 Z" />
 </g>
 <g transform="translate(408.01, 352.541)" style="fill:#000000; fill-rule:evenodd; stroke:none; stroke-width:2; stroke-linecap:butt; stroke-linejoin:miter; stroke-dasharray:none;" >
  <path d="M0 0 C0 0 1.797 0 1.797 0 C1.797 0 1.797 6.943 1.797 6.943 C1.797 7.477 1.879 7.913 2.044 8.252 C2.347 8.877 2.915 9.189 3.746 9.189 C4.938 9.189 5.75 8.643 6.18 7.549 C6.415 6.963 6.533 6.158 6.533 5.137 C6.533 5.137 6.533 0 6.533 0 C6.533 0 8.291 0 8.291 0 C8.291 0 8.291 10.459 8.291 10.459 C8.291 10.459 6.631 10.459 6.631 10.459 C6.631 10.459 6.65 8.916 6.65 8.916 C6.426 9.313 6.148 9.648 5.815 9.922 C5.158 10.469 4.359 10.742 3.42 10.742 C1.957 10.742 0.961 10.244 0.43 9.248 C0.143 8.714 0 8.001 0 7.109 C0 7.109 0 0 0 0 Z" />
 </g>
 <g transform="translate(419.289, 352.307)" style="fill:#000000; fill-rule:evenodd; stroke:none; stroke-width:2; stroke-linecap:butt; stroke-linejoin:miter; stroke-dasharray:none;" >
  <path d="M0 10.693 C0 10.693 0 0.234 0 0.234 C0 0.234 1.738 0.234 1.738 0.234 C1.738 0.234 1.738 1.718 1.738 1.718 C2.154 1.204 2.532 0.83 2.871 0.595 C3.45 0.198 4.107 0 4.844 0 C5.677 0 6.348 0.205 6.856 0.615 C7.142 0.849 7.402 1.194 7.637 1.65 C8.027 1.089 8.486 0.674 9.014 0.405 C9.541 0.134 10.133 0 10.791 0 C12.197 0 13.154 0.507 13.662 1.523 C13.936 2.07 14.072 2.805 14.072 3.73 C14.072 3.73 14.072 10.693 14.072 10.693 C14.072 10.693 12.246 10.693 12.246 10.693 C12.246 10.693 12.246 3.427 12.246 3.427 C12.246 2.73 12.071 2.252 11.724 1.992 C11.375 1.731 10.95 1.601 10.449 1.601 C9.759 1.601 9.165 1.832 8.667 2.295 C8.169 2.756 7.92 3.528 7.92 4.609 C7.92 4.609 7.92 10.693 7.92 10.693 C7.92 10.693 6.133 10.693 6.133 10.693 C6.133 10.693 6.133 3.867 6.133 3.867 C6.133 3.157 6.048 2.639 5.879 2.314 C5.611 1.826 5.113 1.582 4.385 1.582 C3.721 1.582 3.116 1.839 2.573 2.353 C2.029 2.867 1.758 3.798 1.758 5.146 C1.758 5.146 1.758 10.693 1.758 10.693 C1.758 10.693 0 10.693 0 10.693 Z" />
 </g>
 <g transform="translate(435.443, 352.307)" style="fill:#000000; fill-rule:evenodd; stroke:none; stroke-width:2; stroke-linecap:butt; stroke-linejoin:miter; stroke-dasharray:none;" >
  <path d="M4.911 0 C5.649 0 6.364 0.173 7.056 0.522 C7.748 0.87 8.276 1.321 8.638 1.875 C8.988 2.402 9.22 3.017 9.336 3.72 C9.44 4.202 9.493 4.97 9.493 6.025 C9.493 6.025 1.885 6.025 1.885 6.025 C1.917 7.089 2.165 7.942 2.631 8.586 C3.096 9.228 3.816 9.55 4.791 9.55 C5.703 9.55 6.429 9.246 6.972 8.637 C7.276 8.285 7.491 7.876 7.618 7.412 C7.618 7.412 9.346 7.412 9.346 7.412 C9.3 7.796 9.149 8.223 8.892 8.696 C8.634 9.168 8.347 9.553 8.031 9.853 C7.501 10.374 6.845 10.725 6.064 10.908 C5.643 11.011 5.168 11.064 4.639 11.064 C3.345 11.064 2.248 10.59 1.349 9.643 C0.45 8.696 0 7.369 0 5.664 C0 3.984 0.453 2.62 1.359 1.572 C2.264 0.523 3.449 0 4.911 0 Z M1.924 4.629 C1.924 4.629 7.686 4.629 7.686 4.629 C7.615 3.867 7.45 3.257 7.192 2.802 C6.714 1.956 5.916 1.533 4.8 1.533 C3.999 1.533 3.328 1.824 2.786 2.407 C2.244 2.989 1.955 3.73 1.924 4.629 Z" />
 </g>
 <g transform="translate(447.039, 352.307)" style="fill:#000000; fill-rule:evenodd; stroke:none; stroke-width:2; stroke-linecap:butt; stroke-linejoin:miter; stroke-dasharray:none;" >
  <path d="M0 10.693 C0 10.693 0 0.234 0 0.234 C0 0.234 1.67 0.234 1.67 0.234 C1.67 0.234 1.67 1.718 1.67 1.718 C2.164 1.106 2.689 0.667 3.242 0.4 C3.795 0.132 4.41 0 5.088 0 C6.572 0 7.574 0.517 8.096 1.552 C8.382 2.119 8.525 2.929 8.525 3.984 C8.525 3.984 8.525 10.693 8.525 10.693 C8.525 10.693 6.738 10.693 6.738 10.693 C6.738 10.693 6.738 4.101 6.738 4.101 C6.738 3.463 6.644 2.949 6.455 2.558 C6.143 1.907 5.576 1.582 4.756 1.582 C4.339 1.582 3.997 1.624 3.731 1.709 C3.248 1.851 2.825 2.138 2.461 2.568 C2.168 2.913 1.978 3.269 1.89 3.637 C1.802 4.005 1.758 4.531 1.758 5.214 C1.758 5.214 1.758 10.693 1.758 10.693 C1.758 10.693 0 10.693 0 10.693 Z" />
 </g>
 <g transform="translate(457.225, 349.621)" style="fill:#000000; fill-rule:evenodd; stroke:none; stroke-width:2; stroke-linecap:butt; stroke-linejoin:miter; stroke-dasharray:none;" >
  <path d="M1.416 2.92 C1.416 2.92 1.416 0 1.416 0 C1.416 0 3.193 0 3.193 0 C3.193 0 3.193 2.92 3.193 2.92 C3.193 2.92 4.863 2.92 4.863 2.92 C4.863 2.92 4.863 4.356 4.863 4.356 C4.863 4.356 3.193 4.356 3.193 4.356 C3.193 4.356 3.193 11.182 3.193 11.182 C3.193 11.546 3.316 11.79 3.564 11.914 C3.701 11.985 3.928 12.022 4.248 12.022 C4.332 12.022 4.423 12.019 4.521 12.015 C4.619 12.011 4.732 11.999 4.863 11.983 C4.863 11.983 4.863 13.379 4.863 13.379 C4.661 13.438 4.451 13.48 4.233 13.506 C4.014 13.531 3.779 13.545 3.525 13.545 C2.705 13.545 2.148 13.335 1.855 12.915 C1.562 12.495 1.416 11.949 1.416 11.279 C1.416 11.279 1.416 4.356 1.416 4.356 C1.416 4.356 0 4.356 0 4.356 C0 4.356 0 2.92 0 2.92 C0 2.92 1.416 2.92 1.416 2.92 Z" />
 </g>
 <g transform="translate(380, 226.001)" style="fill:#ffffff; fill-rule:nonzero; stroke:none; stroke-width:1; stroke-linecap:butt; stroke-linejoin:miter; stroke-dasharray:none;" >
  <path d="M0 56.162 C0 56.162 37 0 37 0 C37 0 74 56.162 74 56.162 C74 56.162 0 56.162 0 56.162 Z" />
 </g>
 <g transform="translate(380, 226.001)" style="fill:none; stroke:#000000; stroke-width:2; stroke-linecap:round; stroke-linejoin:round; stroke-dasharray:none;" >
  <path d="M0 56.162 C0 56.162 37 0 37 0 C37 0 74 56.162 74 56.162 C74 56.162 0 56.162 0 56.162 Z" />
 </g>
 <g transform="translate(410.596, 251.579)" style="fill:#000000; fill-rule:evenodd; stroke:none; stroke-width:2; stroke-linecap:butt; stroke-linejoin:miter; stroke-dasharray:none;" >
  <path d="M14.394 10.131 C14.394 10.131 0 7.074 0 7.074 C0 7.074 0 5.317 0 5.317 C0 5.317 5.351 6.459 5.351 6.459 C4.824 5.926 4.453 5.47 4.238 5.092 C3.867 4.447 3.681 3.702 3.681 2.856 C3.681 1.339 4.212 0.424 5.273 0.111 C5.528 0.038 5.827 0 6.17 0 C6.604 0 7.11 0.06 7.685 0.18 C7.685 0.18 14.394 1.606 14.394 1.606 C14.394 1.606 14.394 3.412 14.394 3.412 C14.394 3.412 7.802 2.016 7.802 2.016 C7.356 1.922 6.976 1.874 6.669 1.874 C6.449 1.874 6.261 1.899 6.113 1.947 C5.54 2.15 5.254 2.69 5.254 3.568 C5.254 4.298 5.504 5.011 6.006 5.707 C6.507 6.404 7.454 6.902 8.847 7.201 C8.847 7.201 14.394 8.373 14.394 8.373 C14.394 8.373 14.394 10.131 14.394 10.131 Z" />
 </g>
 <g transform="translate(417, 302.963)" style="fill:none; stroke:#000000; stroke-width:2; stroke-linecap:round; stroke-linejoin:round; stroke-dasharray:none;" >
  <path d="M0 14.037 C0 14.037 0 0 0 0 " />
 </g>
 <g transform="translate(411, 286.963)" style="fill:#000000; fill-rule:nonzero; stroke:none; stroke-width:1; stroke-linecap:butt; stroke-linejoin:miter; stroke-dasharray:none;" >
  <path d="M6 0 C6 0 0 16 0 16 C0 16 12 16 12 16 C12 16 6 0 6 0 Z" />
 </g>
 <g transform="translate(411, 286.963)" style="fill:none; stroke:#000000; stroke-width:2; stroke-linecap:butt; stroke-linejoin:miter; stroke-dasharray:none;" >
  <path d="M6 0 C6 0 0 16 0 16 C0 16 12 16 12 16 C12 16 6 0 6 0 Z" />
 </g>
 <g transform="translate(514, 318)" style="fill:#ffffff; fill-rule:nonzero; stroke:none; stroke-width:1; stroke-linecap:butt; stroke-linejoin:miter; stroke-dasharray:none;" >
  <path d="M0 0 C0 0 122 0 122 0 C122 0 122 74 122 74 C122 74 0 74 0 74 C0 74 0 0 0 0 Z" />
 </g>
 <g transform="translate(514, 318)" style="fill:none; stroke:#000000; stroke-width:2; stroke-linecap:round; stroke-linejoin:round; stroke-dasharray:none;" >
  <path d="M0 0 C0 0 122 0 122 0 C122 0 122 74 122 74 C122 74 0 74 0 74 C0 74 0 0 0 0 Z" />
 </g>
 <g transform="translate(530.871, 348.654)" style="fill:#000000; fill-rule:evenodd; stroke:none; stroke-width:2; stroke-linecap:butt; stroke-linejoin:miter; stroke-dasharray:none;" >
  <path d="M1.963 12.686 C1.963 12.686 5.348 12.686 5.348 12.686 C5.99 12.686 6.518 12.617 6.931 12.481 C7.669 12.227 8.273 11.739 8.743 11.016 C9.118 10.436 9.389 9.694 9.554 8.789 C9.65 8.248 9.697 7.747 9.697 7.285 C9.697 5.508 9.352 4.127 8.662 3.145 C7.972 2.161 6.861 1.67 5.329 1.67 C5.329 1.67 1.963 1.67 1.963 1.67 C1.963 1.67 1.963 12.686 1.963 12.686 Z M0 14.346 C0 14.346 0 0 0 0 C0 0 5.729 0 5.729 0 C7.674 0 9.183 0.7 10.254 2.1 C11.211 3.363 11.69 4.981 11.69 6.953 C11.69 8.477 11.406 9.854 10.842 11.084 C9.847 13.258 8.136 14.346 5.71 14.346 C5.71 14.346 0 14.346 0 14.346 Z" />
 </g>
 <g transform="translate(544.326, 352.238)" style="fill:#000000; fill-rule:evenodd; stroke:none; stroke-width:2; stroke-linecap:butt; stroke-linejoin:miter; stroke-dasharray:none;" >
  <path d="M4.829 9.619 C5.981 9.619 6.771 9.178 7.199 8.297 C7.627 7.416 7.842 6.436 7.842 5.357 C7.842 4.381 7.687 3.588 7.378 2.977 C6.889 2.014 6.045 1.533 4.848 1.533 C3.785 1.533 3.013 1.943 2.53 2.762 C2.048 3.581 1.807 4.57 1.807 5.727 C1.807 6.839 2.048 7.766 2.53 8.507 C3.013 9.248 3.779 9.619 4.829 9.619 Z M4.897 0 C6.235 0 7.366 0.449 8.291 1.346 C9.215 2.244 9.678 3.565 9.678 5.308 C9.678 6.992 9.27 8.384 8.455 9.484 C7.641 10.583 6.377 11.133 4.664 11.133 C3.236 11.133 2.101 10.647 1.26 9.674 C0.42 8.701 0 7.396 0 5.756 C0 4 0.443 2.602 1.328 1.561 C2.214 0.52 3.403 0 4.897 0 Z" />
 </g>
 <g transform="translate(555.326, 352.238)" style="fill:#000000; fill-rule:evenodd; stroke:none; stroke-width:2; stroke-linecap:butt; stroke-linejoin:miter; stroke-dasharray:none;" >
  <path d="M4.746 0 C5.924 0 6.883 0.286 7.622 0.86 C8.361 1.432 8.805 2.418 8.955 3.819 C8.955 3.819 7.246 3.819 7.246 3.819 C7.142 3.174 6.904 2.638 6.533 2.212 C6.162 1.785 5.567 1.573 4.746 1.573 C3.626 1.573 2.825 2.118 2.344 3.21 C2.031 3.919 1.875 4.794 1.875 5.834 C1.875 6.881 2.096 7.762 2.539 8.478 C2.982 9.193 3.678 9.551 4.629 9.551 C5.358 9.551 5.936 9.328 6.362 8.884 C6.788 8.44 7.083 7.832 7.246 7.061 C7.246 7.061 8.955 7.061 8.955 7.061 C8.76 8.448 8.272 9.461 7.49 10.103 C6.709 10.743 5.709 11.065 4.492 11.065 C3.125 11.065 2.034 10.565 1.221 9.566 C0.406 8.566 0 7.318 0 5.821 C0 3.985 0.445 2.555 1.338 1.533 C2.23 0.511 3.365 0 4.746 0 Z" />
 </g>
 <g transform="translate(566.01, 352.541)" style="fill:#000000; fill-rule:evenodd; stroke:none; stroke-width:2; stroke-linecap:butt; stroke-linejoin:miter; stroke-dasharray:none;" >
  <path d="M0 0 C0 0 1.797 0 1.797 0 C1.797 0 1.797 6.943 1.797 6.943 C1.797 7.477 1.879 7.913 2.044 8.252 C2.347 8.877 2.915 9.189 3.746 9.189 C4.938 9.189 5.75 8.643 6.18 7.549 C6.415 6.963 6.533 6.158 6.533 5.137 C6.533 5.137 6.533 0 6.533 0 C6.533 0 8.291 0 8.291 0 C8.291 0 8.291 10.459 8.291 10.459 C8.291 10.459 6.631 10.459 6.631 10.459 C6.631 10.459 6.65 8.916 6.65 8.916 C6.426 9.313 6.148 9.648 5.815 9.922 C5.158 10.469 4.359 10.742 3.42 10.742 C1.957 10.742 0.961 10.244 0.43 9.248 C0.143 8.714 0 8.001 0 7.109 C0 7.109 0 0 0 0 Z" />
 </g>
 <g transform="translate(577.289, 352.307)" style="fill:#000000; fill-rule:evenodd; stroke:none; stroke-width:2; stroke-linecap:butt; stroke-linejoin:miter; stroke-dasharray:none;" >
  <path d="M0 10.693 C0 10.693 0 0.234 0 0.234 C0 0.234 1.738 0.234 1.738 0.234 C1.738 0.234 1.738 1.718 1.738 1.718 C2.154 1.204 2.532 0.83 2.871 0.595 C3.45 0.198 4.107 0 4.844 0 C5.677 0 6.348 0.205 6.856 0.615 C7.142 0.849 7.402 1.194 7.637 1.65 C8.027 1.089 8.486 0.674 9.014 0.405 C9.541 0.134 10.133 0 10.791 0 C12.197 0 13.154 0.507 13.662 1.523 C13.936 2.07 14.072 2.805 14.072 3.73 C14.072 3.73 14.072 10.693 14.072 10.693 C14.072 10.693 12.246 10.693 12.246 10.693 C12.246 10.693 12.246 3.427 12.246 3.427 C12.246 2.73 12.071 2.252 11.724 1.992 C11.375 1.731 10.95 1.601 10.449 1.601 C9.759 1.601 9.165 1.832 8.667 2.295 C8.169 2.756 7.92 3.528 7.92 4.609 C7.92 4.609 7.92 10.693 7.92 10.693 C7.92 10.693 6.133 10.693 6.133 10.693 C6.133 10.693 6.133 3.867 6.133 3.867 C6.133 3.157 6.048 2.639 5.879 2.314 C5.611 1.826 5.113 1.582 4.385 1.582 C3.721 1.582 3.116 1.839 2.573 2.353 C2.029 2.867 1.758 3.798 1.758 5.146 C1.758 5.146 1.758 10.693 1.758 10.693 C1.758 10.693 0 10.693 0 10.693 Z" />
 </g>
 <g transform="translate(593.443, 352.307)" style="fill:#000000; fill-rule:evenodd; stroke:none; stroke-width:2; stroke-linecap:butt; stroke-linejoin:miter; stroke-dasharray:none;" >
  <path d="M4.911 0 C5.649 0 6.364 0.173 7.056 0.522 C7.748 0.87 8.276 1.321 8.638 1.875 C8.988 2.402 9.22 3.017 9.336 3.72 C9.44 4.202 9.493 4.97 9.493 6.025 C9.493 6.025 1.885 6.025 1.885 6.025 C1.917 7.089 2.165 7.942 2.631 8.586 C3.096 9.228 3.816 9.55 4.791 9.55 C5.703 9.55 6.429 9.246 6.972 8.637 C7.276 8.285 7.491 7.876 7.618 7.412 C7.618 7.412 9.346 7.412 9.346 7.412 C9.3 7.796 9.149 8.223 8.892 8.696 C8.634 9.168 8.347 9.553 8.031 9.853 C7.501 10.374 6.845 10.725 6.064 10.908 C5.643 11.011 5.168 11.064 4.639 11.064 C3.345 11.064 2.248 10.59 1.349 9.643 C0.45 8.696 0 7.369 0 5.664 C0 3.984 0.453 2.62 1.359 1.572 C2.264 0.523 3.449 0 4.911 0 Z M1.924 4.629 C1.924 4.629 7.686 4.629 7.686 4.629 C7.615 3.867 7.45 3.257 7.192 2.802 C6.714 1.956 5.916 1.533 4.8 1.533 C3.999 1.533 3.328 1.824 2.786 2.407 C2.244 2.989 1.955 3.73 1.924 4.629 Z" />
 </g>
 <g transform="translate(605.039, 352.307)" style="fill:#000000; fill-rule:evenodd; stroke:none; stroke-width:2; stroke-linecap:butt; stroke-linejoin:miter; stroke-dasharray:none;" >
  <path d="M0 10.693 C0 10.693 0 0.234 0 0.234 C0 0.234 1.67 0.234 1.67 0.234 C1.67 0.234 1.67 1.718 1.67 1.718 C2.164 1.106 2.689 0.667 3.242 0.4 C3.795 0.132 4.41 0 5.088 0 C6.572 0 7.574 0.517 8.096 1.552 C8.382 2.119 8.525 2.929 8.525 3.984 C8.525 3.984 8.525 10.693 8.525 10.693 C8.525 10.693 6.738 10.693 6.738 10.693 C6.738 10.693 6.738 4.101 6.738 4.101 C6.738 3.463 6.644 2.949 6.455 2.558 C6.143 1.907 5.576 1.582 4.756 1.582 C4.339 1.582 3.997 1.624 3.731 1.709 C3.248 1.851 2.825 2.138 2.461 2.568 C2.168 2.913 1.978 3.269 1.89 3.637 C1.802 4.005 1.758 4.531 1.758 5.214 C1.758 5.214 1.758 10.693 1.758 10.693 C1.758 10.693 0 10.693 0 10.693 Z" />
 </g>
 <g transform="translate(615.225, 349.621)" style="fill:#000000; fill-rule:evenodd; stroke:none; stroke-width:2; stroke-linecap:butt; stroke-linejoin:miter; stroke-dasharray:none;" >
  <path d="M1.416 2.92 C1.416 2.92 1.416 0 1.416 0 C1.416 0 3.193 0 3.193 0 C3.193 0 3.193 2.92 3.193 2.92 C3.193 2.92 4.863 2.92 4.863 2.92 C4.863 2.92 4.863 4.356 4.863 4.356 C4.863 4.356 3.193 4.356 3.193 4.356 C3.193 4.356 3.193 11.182 3.193 11.182 C3.193 11.546 3.316 11.79 3.564 11.914 C3.701 11.985 3.928 12.022 4.248 12.022 C4.332 12.022 4.423 12.019 4.521 12.015 C4.619 12.011 4.732 11.999 4.863 11.983 C4.863 11.983 4.863 13.379 4.863 13.379 C4.661 13.438 4.451 13.48 4.233 13.506 C4.014 13.531 3.779 13.545 3.525 13.545 C2.705 13.545 2.148 13.335 1.855 12.915 C1.562 12.495 1.416 11.949 1.416 11.279 C1.416 11.279 1.416 4.356 1.416 4.356 C1.416 4.356 0 4.356 0 4.356 C0 4.356 0 2.92 0 2.92 C0 2.92 1.416 2.92 1.416 2.92 Z" />
 </g>
 <g transform="translate(538, 226.001)" style="fill:#ffffff; fill-rule:nonzero; stroke:none; stroke-width:1; stroke-linecap:butt; stroke-linejoin:miter; stroke-dasharray:none;" >
  <path d="M0 56.162 C0 56.162 37 0 37 0 C37 0 74 56.162 74 56.162 C74 56.162 0 56.162 0 56.162 Z" />
 </g>
 <g transform="translate(538, 226.001)" style="fill:none; stroke:#000000; stroke-width:2; stroke-linecap:round; stroke-linejoin:round; stroke-dasharray:none;" >
  <path d="M0 56.162 C0 56.162 37 0 37 0 C37 0 74 56.162 74 56.162 C74 56.162 0 56.162 0 56.162 Z" />
 </g>
 <g transform="translate(568.596, 251.579)" style="fill:#000000; fill-rule:evenodd; stroke:none; stroke-width:2; stroke-linecap:butt; stroke-linejoin:miter; stroke-dasharray:none;" >
  <path d="M14.394 10.131 C14.394 10.131 0 7.074 0 7.074 C0 7.074 0 5.317 0 5.317 C0 5.317 5.351 6.459 5.351 6.459 C4.824 5.926 4.453 5.47 4.238 5.092 C3.867 4.447 3.681 3.702 3.681 2.856 C3.681 1.339 4.212 0.424 5.273 0.111 C5.528 0.038 5.827 0 6.17 0 C6.604 0 7.11 0.06 7.685 0.18 C7.685 0.18 14.394 1.606 14.394 1.606 C14.394 1.606 14.394 3.412 14.394 3.412 C14.394 3.412 7.802 2.016 7.802 2.016 C7.356 1.922 6.976 1.874 6.669 1.874 C6.449 1.874 6.261 1.899 6.113 1.947 C5.54 2.15 5.254 2.69 5.254 3.568 C5.254 4.298 5.504 5.011 6.006 5.707 C6.507 6.404 7.454 6.902 8.847 7.201 C8.847 7.201 14.394 8.373 14.394 8.373 C14.394 8.373 14.394 10.131 14.394 10.131 Z" />
 </g>
 <g transform="translate(575, 302.963)" style="fill:none; stroke:#000000; stroke-width:2; stroke-linecap:round; stroke-linejoin:round; stroke-dasharray:none;" >
  <path d="M0 14.037 C0 14.037 0 0 0 0 " />
 </g>
 <g transform="translate(569, 286.963)" style="fill:#000000; fill-rule:nonzero; stroke:none; stroke-width:1; stroke-linecap:butt; stroke-linejoin:miter; stroke-dasharray:none;" >
  <path d="M6 0 C6 0 0 16 0 16 C0 16 12 16 12 16 C12 16 6 0 6 0 Z" />
 </g>
 <g transform="translate(569, 286.963)" style="fill:none; stroke:#000000; stroke-width:2; stroke-linecap:butt; stroke-linejoin:miter; stroke-dasharray:none;" >
  <path d="M6 0 C6 0 0 16 0 16 C0 16 12 16 12 16 C12 16 6 0 6 0 Z" />
 </g>
 <g transform="translate(672, 318)" style="fill:#ffffff; fill-rule:nonzero; stroke:none; stroke-width:1; stroke-linecap:butt; stroke-linejoin:miter; stroke-dasharray:none;" >
  <path d="M0 0 C0 0 122 0 122 0 C122 0 122 74 122 74 C122 74 0 74 0 74 C0 74 0 0 0 0 Z" />
 </g>
 <g transform="translate(672, 318)" style="fill:none; stroke:#000000; stroke-width:2; stroke-linecap:round; stroke-linejoin:round; stroke-dasharray:none;" >
  <path d="M0 0 C0 0 122 0 122 0 C122 0 122 74 122 74 C122 74 0 74 0 74 C0 74 0 0 0 0 Z" />
 </g>
 <g transform="translate(688.871, 348.654)" style="fill:#000000; fill-rule:evenodd; stroke:none; stroke-width:2; stroke-linecap:butt; stroke-linejoin:miter; stroke-dasharray:none;" >
  <path d="M1.963 12.686 C1.963 12.686 5.348 12.686 5.348 12.686 C5.99 12.686 6.518 12.617 6.931 12.481 C7.669 12.227 8.273 11.739 8.743 11.016 C9.118 10.436 9.389 9.694 9.554 8.789 C9.65 8.248 9.697 7.747 9.697 7.285 C9.697 5.508 9.352 4.127 8.662 3.145 C7.972 2.161 6.861 1.67 5.329 1.67 C5.329 1.67 1.963 1.67 1.963 1.67 C1.963 1.67 1.963 12.686 1.963 12.686 Z M0 14.346 C0 14.346 0 0 0 0 C0 0 5.729 0 5.729 0 C7.674 0 9.183 0.7 10.254 2.1 C11.211 3.363 11.69 4.981 11.69 6.953 C11.69 8.477 11.406 9.854 10.842 11.084 C9.847 13.258 8.136 14.346 5.71 14.346 C5.71 14.346 0 14.346 0 14.346 Z" />
 </g>
 <g transform="translate(702.326, 352.238)" style="fill:#000000; fill-rule:evenodd; stroke:none; stroke-width:2; stroke-linecap:butt; stroke-linejoin:miter; stroke-dasharray:none;" >
  <path d="M4.829 9.619 C5.981 9.619 6.771 9.178 7.199 8.297 C7.627 7.416 7.842 6.436 7.842 5.357 C7.842 4.381 7.687 3.588 7.378 2.977 C6.889 2.014 6.045 1.533 4.848 1.533 C3.785 1.533 3.013 1.943 2.53 2.762 C2.048 3.581 1.807 4.57 1.807 5.727 C1.807 6.839 2.048 7.766 2.53 8.507 C3.013 9.248 3.779 9.619 4.829 9.619 Z M4.897 0 C6.235 0 7.366 0.449 8.291 1.346 C9.215 2.244 9.678 3.565 9.678 5.308 C9.678 6.992 9.27 8.384 8.455 9.484 C7.641 10.583 6.377 11.133 4.664 11.133 C3.236 11.133 2.101 10.647 1.26 9.674 C0.42 8.701 0 7.396 0 5.756 C0 4 0.443 2.602 1.328 1.561 C2.214 0.52 3.403 0 4.897 0 Z" />
 </g>
 <g transform="translate(713.326, 352.238)" style="fill:#000000; fill-rule:evenodd; stroke:none; stroke-width:2; stroke-linecap:butt; stroke-linejoin:miter; stroke-dasharray:none;" >
  <path d="M4.746 0 C5.924 0 6.883 0.286 7.622 0.86 C8.361 1.432 8.805 2.418 8.955 3.819 C8.955 3.819 7.246 3.819 7.246 3.819 C7.142 3.174 6.904 2.638 6.533 2.212 C6.162 1.785 5.567 1.573 4.746 1.573 C3.626 1.573 2.825 2.118 2.344 3.21 C2.031 3.919 1.875 4.794 1.875 5.834 C1.875 6.881 2.096 7.762 2.539 8.478 C2.982 9.193 3.678 9.551 4.629 9.551 C5.358 9.551 5.936 9.328 6.362 8.884 C6.788 8.44 7.083 7.832 7.246 7.061 C7.246 7.061 8.955 7.061 8.955 7.061 C8.76 8.448 8.272 9.461 7.49 10.103 C6.709 10.743 5.709 11.065 4.492 11.065 C3.125 11.065 2.034 10.565 1.221 9.566 C0.406 8.566 0 7.318 0 5.821 C0 3.985 0.445 2.555 1.338 1.533 C2.23 0.511 3.365 0 4.746 0 Z" />
 </g>
 <g transform="translate(724.01, 352.541)" style="fill:#000000; fill-rule:evenodd; stroke:none; stroke-width:2; stroke-linecap:butt; stroke-linejoin:miter; stroke-dasharray:none;" >
  <path d="M0 0 C0 0 1.797 0 1.797 0 C1.797 0 1.797 6.943 1.797 6.943 C1.797 7.477 1.879 7.913 2.044 8.252 C2.347 8.877 2.915 9.189 3.746 9.189 C4.938 9.189 5.75 8.643 6.18 7.549 C6.415 6.963 6.533 6.158 6.533 5.137 C6.533 5.137 6.533 0 6.533 0 C6.533 0 8.291 0 8.291 0 C8.291 0 8.291 10.459 8.291 10.459 C8.291 10.459 6.631 10.459 6.631 10.459 C6.631 10.459 6.65 8.916 6.65 8.916 C6.426 9.313 6.148 9.648 5.815 9.922 C5.158 10.469 4.359 10.742 3.42 10.742 C1.957 10.742 0.961 10.244 0.43 9.248 C0.143 8.714 0 8.001 0 7.109 C0 7.109 0 0 0 0 Z" />
 </g>
 <g transform="translate(735.289, 352.307)" style="fill:#000000; fill-rule:evenodd; stroke:none; stroke-width:2; stroke-linecap:butt; stroke-linejoin:miter; stroke-dasharray:none;" >
  <path d="M0 10.693 C0 10.693 0 0.234 0 0.234 C0 0.234 1.738 0.234 1.738 0.234 C1.738 0.234 1.738 1.718 1.738 1.718 C2.154 1.204 2.532 0.83 2.871 0.595 C3.45 0.198 4.107 0 4.844 0 C5.677 0 6.348 0.205 6.856 0.615 C7.142 0.849 7.402 1.194 7.637 1.65 C8.027 1.089 8.486 0.674 9.014 0.405 C9.541 0.134 10.133 0 10.791 0 C12.197 0 13.154 0.507 13.662 1.523 C13.936 2.07 14.072 2.805 14.072 3.73 C14.072 3.73 14.072 10.693 14.072 10.693 C14.072 10.693 12.246 10.693 12.246 10.693 C12.246 10.693 12.246 3.427 12.246 3.427 C12.246 2.73 12.071 2.252 11.724 1.992 C11.375 1.731 10.95 1.601 10.449 1.601 C9.759 1.601 9.165 1.832 8.667 2.295 C8.169 2.756 7.92 3.528 7.92 4.609 C7.92 4.609 7.92 10.693 7.92 10.693 C7.92 10.693 6.133 10.693 6.133 10.693 C6.133 10.693 6.133 3.867 6.133 3.867 C6.133 3.157 6.048 2.639 5.879 2.314 C5.611 1.826 5.113 1.582 4.385 1.582 C3.721 1.582 3.116 1.839 2.573 2.353 C2.029 2.867 1.758 3.798 1.758 5.146 C1.758 5.146 1.758 10.693 1.758 10.693 C1.758 10.693 0 10.693 0 10.693 Z" />
 </g>
 <g transform="translate(751.443, 352.307)" style="fill:#000000; fill-rule:evenodd; stroke:none; stroke-width:2; stroke-linecap:butt; stroke-linejoin:miter; stroke-dasharray:none;" >
  <path d="M4.911 0 C5.649 0 6.364 0.173 7.056 0.522 C7.748 0.87 8.276 1.321 8.638 1.875 C8.988 2.402 9.22 3.017 9.336 3.72 C9.44 4.202 9.493 4.97 9.493 6.025 C9.493 6.025 1.885 6.025 1.885 6.025 C1.917 7.089 2.165 7.942 2.631 8.586 C3.096 9.228 3.816 9.55 4.791 9.55 C5.703 9.55 6.429 9.246 6.972 8.637 C7.276 8.285 7.491 7.876 7.618 7.412 C7.618 7.412 9.346 7.412 9.346 7.412 C9.3 7.796 9.149 8.223 8.892 8.696 C8.634 9.168 8.347 9.553 8.031 9.853 C7.501 10.374 6.845 10.725 6.064 10.908 C5.643 11.011 5.168 11.064 4.639 11.064 C3.345 11.064 2.248 10.59 1.349 9.643 C0.45 8.696 0 7.369 0 5.664 C0 3.984 0.453 2.62 1.359 1.572 C2.264 0.523 3.449 0 4.911 0 Z M1.924 4.629 C1.924 4.629 7.686 4.629 7.686 4.629 C7.615 3.867 7.45 3.257 7.192 2.802 C6.714 1.956 5.916 1.533 4.8 1.533 C3.999 1.533 3.328 1.824 2.786 2.407 C2.244 2.989 1.955 3.73 1.924 4.629 Z" />
 </g>
 <g transform="translate(763.039, 352.307)" style="fill:#000000; fill-rule:evenodd; stroke:none; stroke-width:2; stroke-linecap:butt; stroke-linejoin:miter; stroke-dasharray:none;" >
  <path d="M0 10.693 C0 10.693 0 0.234 0 0.234 C0 0.234 1.67 0.234 1.67 0.234 C1.67 0.234 1.67 1.718 1.67 1.718 C2.164 1.106 2.689 0.667 3.242 0.4 C3.795 0.132 4.41 0 5.088 0 C6.572 0 7.574 0.517 8.096 1.552 C8.382 2.119 8.525 2.929 8.525 3.984 C8.525 3.984 8.525 10.693 8.525 10.693 C8.525 10.693 6.738 10.693 6.738 10.693 C6.738 10.693 6.738 4.101 6.738 4.101 C6.738 3.463 6.644 2.949 6.455 2.558 C6.143 1.907 5.576 1.582 4.756 1.582 C4.339 1.582 3.997 1.624 3.731 1.709 C3.248 1.851 2.825 2.138 2.461 2.568 C2.168 2.913 1.978 3.269 1.89 3.637 C1.802 4.005 1.758 4.531 1.758 5.214 C1.758 5.214 1.758 10.693 1.758 10.693 C1.758 10.693 0 10.693 0 10.693 Z" />
 </g>
 <g transform="translate(773.225, 349.621)" style="fill:#000000; fill-rule:evenodd; stroke:none; stroke-width:2; stroke-linecap:butt; stroke-linejoin:miter; stroke-dasharray:none;" >
  <path d="M1.416 2.92 C1.416 2.92 1.416 0 1.416 0 C1.416 0 3.193 0 3.193 0 C3.193 0 3.193 2.92 3.193 2.92 C3.193 2.92 4.863 2.92 4.863 2.92 C4.863 2.92 4.863 4.356 4.863 4.356 C4.863 4.356 3.193 4.356 3.193 4.356 C3.193 4.356 3.193 11.182 3.193 11.182 C3.193 11.546 3.316 11.79 3.564 11.914 C3.701 11.985 3.928 12.022 4.248 12.022 C4.332 12.022 4.423 12.019 4.521 12.015 C4.619 12.011 4.732 11.999 4.863 11.983 C4.863 11.983 4.863 13.379 4.863 13.379 C4.661 13.438 4.451 13.48 4.233 13.506 C4.014 13.531 3.779 13.545 3.525 13.545 C2.705 13.545 2.148 13.335 1.855 12.915 C1.562 12.495 1.416 11.949 1.416 11.279 C1.416 11.279 1.416 4.356 1.416 4.356 C1.416 4.356 0 4.356 0 4.356 C0 4.356 0 2.92 0 2.92 C0 2.92 1.416 2.92 1.416 2.92 Z" />
 </g>
 <g transform="translate(696, 226.001)" style="fill:#ffffff; fill-rule:nonzero; stroke:none; stroke-width:1; stroke-linecap:butt; stroke-linejoin:miter; stroke-dasharray:none;" >
  <path d="M0 56.162 C0 56.162 37 0 37 0 C37 0 74 56.162 74 56.162 C74 56.162 0 56.162 0 56.162 Z" />
 </g>
 <g transform="translate(696, 226.001)" style="fill:none; stroke:#000000; stroke-width:2; stroke-linecap:round; stroke-linejoin:round; stroke-dasharray:none;" >
  <path d="M0 56.162 C0 56.162 37 0 37 0 C37 0 74 56.162 74 56.162 C74 56.162 0 56.162 0 56.162 Z" />
 </g>
 <g transform="translate(726.596, 251.579)" style="fill:#000000; fill-rule:evenodd; stroke:none; stroke-width:2; stroke-linecap:butt; stroke-linejoin:miter; stroke-dasharray:none;" >
  <path d="M14.394 10.131 C14.394 10.131 0 7.074 0 7.074 C0 7.074 0 5.317 0 5.317 C0 5.317 5.351 6.459 5.351 6.459 C4.824 5.926 4.453 5.47 4.238 5.092 C3.867 4.447 3.681 3.702 3.681 2.856 C3.681 1.339 4.212 0.424 5.273 0.111 C5.528 0.038 5.827 0 6.17 0 C6.604 0 7.11 0.06 7.685 0.18 C7.685 0.18 14.394 1.606 14.394 1.606 C14.394 1.606 14.394 3.412 14.394 3.412 C14.394 3.412 7.802 2.016 7.802 2.016 C7.356 1.922 6.976 1.874 6.669 1.874 C6.449 1.874 6.261 1.899 6.113 1.947 C5.54 2.15 5.254 2.69 5.254 3.568 C5.254 4.298 5.504 5.011 6.006 5.707 C6.507 6.404 7.454 6.902 8.847 7.201 C8.847 7.201 14.394 8.373 14.394 8.373 C14.394 8.373 14.394 10.131 14.394 10.131 Z" />
 </g>
 <g transform="translate(733, 302.963)" style="fill:none; stroke:#000000; stroke-width:2; stroke-linecap:round; stroke-linejoin:round; stroke-dasharray:none;" >
  <path d="M0 14.037 C0 14.037 0 0 0 0 " />
 </g>
 <g transform="translate(727, 286.963)" style="fill:#000000; fill-rule:nonzero; stroke:none; stroke-width:1; stroke-linecap:butt; stroke-linejoin:miter; stroke-dasharray:none;" >
  <path d="M6 0 C6 0 0 16 0 16 C0 16 12 16 12 16 C12 16 6 0 6 0 Z" />
 </g>
 <g transform="translate(727, 286.963)" style="fill:none; stroke:#000000; stroke-width:2; stroke-linecap:butt; stroke-linejoin:miter; stroke-dasharray:none;" >
  <path d="M6 0 C6 0 0 16 0 16 C0 16 12 16 12 16 C12 16 6 0 6 0 Z" />
 </g>
 <g transform="translate(101.315, 200.125)" style="fill:none; stroke:#000000; stroke-width:2; stroke-linecap:round; stroke-linejoin:round; stroke-dasharray:none;" >
  <path d="M0 25.245 C0 25.245 0 0 0 0 C0 0 10.083 0 10.083 0 C10.083 0 14.083 0 14.083 0 " />
 </g>
 <g transform="translate(115.398, 194.125)" style="fill:#000000; fill-rule:nonzero; stroke:none; stroke-width:1; stroke-linecap:butt; stroke-linejoin:miter; stroke-dasharray:none;" >
  <path d="M16 6 C16 6 0 0 0 0 C0 0 0 12 0 12 C0 12 16 6 16 6 Z" />
 </g>
 <g transform="translate(115.398, 194.125)" style="fill:none; stroke:#000000; stroke-width:2; stroke-linecap:butt; stroke-linejoin:miter; stroke-dasharray:none;" >
  <path d="M16 6 C16 6 0 0 0 0 C0 0 0 12 0 12 C0 12 16 6 16 6 Z" />
 </g>
 <g transform="translate(227, 166)" style="fill:none; stroke:#000000; stroke-width:2; stroke-linecap:round; stroke-linejoin:round; stroke-dasharray:none;" >
  <path d="M0 0 C0 0 23.8 0 23.8 0 C23.8 0 44.2 0 44.2 0 C44.2 0 48.2 0 48.2 0 " />
 </g>
 <g transform="translate(275.2, 160)" style="fill:#000000; fill-rule:nonzero; stroke:none; stroke-width:1; stroke-linecap:butt; stroke-linejoin:miter; stroke-dasharray:none;" >
  <path d="M16 6 C16 6 0 0 0 0 C0 0 0 12 0 12 C0 12 16 6 16 6 Z" />
 </g>
 <g transform="translate(275.2, 160)" style="fill:none; stroke:#000000; stroke-width:2; stroke-linecap:butt; stroke-linejoin:miter; stroke-dasharray:none;" >
  <path d="M16 6 C16 6 0 0 0 0 C0 0 0 12 0 12 C0 12 16 6 16 6 Z" />
 </g>
 <g transform="translate(387, 166)" style="fill:none; stroke:#000000; stroke-width:2; stroke-linecap:round; stroke-linejoin:round; stroke-dasharray:none;" >
  <path d="M0 0 C0 0 23.8 0 23.8 0 C23.8 0 44.2 0 44.2 0 C44.2 0 48.2 0 48.2 0 " />
 </g>
 <g transform="translate(435.2, 160)" style="fill:#000000; fill-rule:nonzero; stroke:none; stroke-width:1; stroke-linecap:butt; stroke-linejoin:miter; stroke-dasharray:none;" >
  <path d="M16 6 C16 6 0 0 0 0 C0 0 0 12 0 12 C0 12 16 6 16 6 Z" />
 </g>
 <g transform="translate(435.2, 160)" style="fill:none; stroke:#000000; stroke-width:2; stroke-linecap:butt; stroke-linejoin:miter; stroke-dasharray:none;" >
  <path d="M16 6 C16 6 0 0 0 0 C0 0 0 12 0 12 C0 12 16 6 16 6 Z" />
 </g>
 <g transform="translate(547, 166)" style="fill:none; stroke:#000000; stroke-width:2; stroke-linecap:round; stroke-linejoin:round; stroke-dasharray:none;" >
  <path d="M0 0 C0 0 23.8 0 23.8 0 C23.8 0 44.2 0 44.2 0 C44.2 0 48.2 0 48.2 0 " />
 </g>
 <g transform="translate(595.2, 160)" style="fill:#000000; fill-rule:nonzero; stroke:none; stroke-width:1; stroke-linecap:butt; stroke-linejoin:miter; stroke-dasharray:none;" >
  <path d="M16 6 C16 6 0 0 0 0 C0 0 0 12 0 12 C0 12 16 6 16 6 Z" />
 </g>
 <g transform="translate(595.2, 160)" style="fill:none; stroke:#000000; stroke-width:2; stroke-linecap:butt; stroke-linejoin:miter; stroke-dasharray:none;" >
  <path d="M16 6 C16 6 0 0 0 0 C0 0 0 12 0 12 C0 12 16 6 16 6 Z" />
 </g>
 <g transform="translate(707, 166)" style="fill:none; stroke:#000000; stroke-width:2; stroke-linecap:round; stroke-linejoin:round; stroke-dasharray:none;" >
  <path d="M0 0 C0 0 23.8 0 23.8 0 C23.8 0 44.2 0 44.2 0 C44.2 0 48.2 0 48.2 0 " />
 </g>
 <g transform="translate(755.2, 160)" style="fill:#000000; fill-rule:nonzero; stroke:none; stroke-width:1; stroke-linecap:butt; stroke-linejoin:miter; stroke-dasharray:none;" >
  <path d="M16 6 C16 6 0 0 0 0 C0 0 0 12 0 12 C0 12 16 6 16 6 Z" />
 </g>
 <g transform="translate(755.2, 160)" style="fill:none; stroke:#000000; stroke-width:2; stroke-linecap:butt; stroke-linejoin:miter; stroke-dasharray:none;" >
  <path d="M16 6 C16 6 0 0 0 0 C0 0 0 12 0 12 C0 12 16 6 16 6 Z" />
 </g>
 <g transform="translate(867, 166)" style="fill:none; stroke:#000000; stroke-width:2; stroke-linecap:round; stroke-linejoin:round; stroke-dasharray:none;" >
  <path d="M0 0 C0 0 23.8 0 23.8 0 C23.8 0 63.2 0 63.2 0 " />
 </g>
 <g transform="translate(930.2, 160)" style="fill:#000000; fill-rule:nonzero; stroke:none; stroke-width:1; stroke-linecap:butt; stroke-linejoin:miter; stroke-dasharray:none;" >
  <path d="M16 6 C16 6 0 0 0 0 C0 0 0 12 0 12 C0 12 16 6 16 6 Z" />
 </g>
 <g transform="translate(930.2, 160)" style="fill:none; stroke:#000000; stroke-width:2; stroke-linecap:butt; stroke-linejoin:miter; stroke-dasharray:none;" >
  <path d="M16 6 C16 6 0 0 0 0 C0 0 0 12 0 12 C0 12 16 6 16 6 Z" />
 </g>
 <g transform="translate(258, 199.116)" style="fill:none; stroke:#000000; stroke-width:2; stroke-linecap:round; stroke-linejoin:round; stroke-dasharray:none;" >
  <path d="M0 26.884 C0 26.884 0 0 0 0 C0 0 13.39 0 13.39 0 C13.39 0 17.39 0 17.39 0 " />
 </g>
 <g transform="translate(275.39, 193.116)" style="fill:#000000; fill-rule:nonzero; stroke:none; stroke-width:1; stroke-linecap:butt; stroke-linejoin:miter; stroke-dasharray:none;" >
  <path d="M16 6 C16 6 0 0 0 0 C0 0 0 12 0 12 C0 12 16 6 16 6 Z" />
 </g>
 <g transform="translate(275.39, 193.116)" style="fill:none; stroke:#000000; stroke-width:2; stroke-linecap:butt; stroke-linejoin:miter; stroke-dasharray:none;" >
  <path d="M16 6 C16 6 0 0 0 0 C0 0 0 12 0 12 C0 12 16 6 16 6 Z" />
 </g>
 <g transform="translate(416.81, 198.651)" style="fill:none; stroke:#000000; stroke-width:2; stroke-linecap:round; stroke-linejoin:round; stroke-dasharray:none;" >
  <path d="M0 27.35 C0 27.35 0 0 0 0 C0 0 14.576 0 14.576 0 C14.576 0 18.576 0 18.576 0 " />
 </g>
 <g transform="translate(435.386, 192.651)" style="fill:#000000; fill-rule:nonzero; stroke:none; stroke-width:1; stroke-linecap:butt; stroke-linejoin:miter; stroke-dasharray:none;" >
  <path d="M16 6 C16 6 0 0 0 0 C0 0 0 12 0 12 C0 12 16 6 16 6 Z" />
 </g>
 <g transform="translate(435.386, 192.651)" style="fill:none; stroke:#000000; stroke-width:2; stroke-linecap:butt; stroke-linejoin:miter; stroke-dasharray:none;" >
  <path d="M16 6 C16 6 0 0 0 0 C0 0 0 12 0 12 C0 12 16 6 16 6 Z" />
 </g>
 <g transform="translate(574.81, 197.897)" style="fill:none; stroke:#000000; stroke-width:2; stroke-linecap:round; stroke-linejoin:round; stroke-dasharray:none;" >
  <path d="M0 28.104 C0 28.104 0 0 0 0 C0 0 16.569 0 16.569 0 C16.569 0 20.569 0 20.569 0 " />
 </g>
 <g transform="translate(595.379, 191.897)" style="fill:#000000; fill-rule:nonzero; stroke:none; stroke-width:1; stroke-linecap:butt; stroke-linejoin:miter; stroke-dasharray:none;" >
  <path d="M16 6 C16 6 0 0 0 0 C0 0 0 12 0 12 C0 12 16 6 16 6 Z" />
 </g>
 <g transform="translate(595.379, 191.897)" style="fill:none; stroke:#000000; stroke-width:2; stroke-linecap:butt; stroke-linejoin:miter; stroke-dasharray:none;" >
  <path d="M16 6 C16 6 0 0 0 0 C0 0 0 12 0 12 C0 12 16 6 16 6 Z" />
 </g>
 <g transform="translate(732.81, 197.179)" style="fill:none; stroke:#000000; stroke-width:2; stroke-linecap:round; stroke-linejoin:round; stroke-dasharray:none;" >
  <path d="M0 28.822 C0 28.822 0 0 0 0 C0 0 18.563 0 18.563 0 C18.563 0 22.563 0 22.563 0 " />
 </g>
 <g transform="translate(755.373, 191.179)" style="fill:#000000; fill-rule:nonzero; stroke:none; stroke-width:1; stroke-linecap:butt; stroke-linejoin:miter; stroke-dasharray:none;" >
  <path d="M16 6 C16 6 0 0 0 0 C0 0 0 12 0 12 C0 12 16 6 16 6 Z" />
 </g>
 <g transform="translate(755.373, 191.179)" style="fill:none; stroke:#000000; stroke-width:2; stroke-linecap:butt; stroke-linejoin:miter; stroke-dasharray:none;" >
  <path d="M16 6 C16 6 0 0 0 0 C0 0 0 12 0 12 C0 12 16 6 16 6 Z" />
 </g>
 <g transform="translate(850.658, 31.918)" style="fill:#ffffff; fill-rule:nonzero; stroke:none; stroke-width:1; stroke-linecap:butt; stroke-linejoin:miter; stroke-dasharray:none;" >
  <path d="M0 0 C0 0 122 0 122 0 C122 0 122 59.2002 122 59.2002 C85.4 51.7998 36.6 81.4 0 66.6006 C0 66.6006 0 0 0 0 Z" />
 </g>
 <g transform="translate(850.658, 31.918)" style="fill:none; stroke:#000000; stroke-width:2; stroke-linecap:round; stroke-linejoin:round; stroke-dasharray:none;" >
  <path d="M0 0 C0 0 122 0 122 0 C122 0 122 59.2002 122 59.2002 C85.4 51.7998 36.6 81.4 0 66.6006 C0 66.6006 0 0 0 0 Z" />
 </g>
 <g transform="translate(862.525, 58.6455)" style="fill:#000000; fill-rule:evenodd; stroke:none; stroke-width:2; stroke-linecap:butt; stroke-linejoin:miter; stroke-dasharray:none;" >
  <path d="M0 14.3457 C0 14.3457 0 0 0 0 C0 0 2.295 0 2.295 0 C2.295 0 9.541 11.6211 9.541 11.6211 C9.541 11.6211 9.541 0 9.541 0 C9.541 0 11.387 0 11.387 0 C11.387 0 11.387 14.3457 11.387 14.3457 C11.387 14.3457 9.209 14.3457 9.209 14.3457 C9.209 14.3457 1.856 2.7344 1.856 2.7344 C1.856 2.7344 1.856 14.3457 1.856 14.3457 C1.856 14.3457 0 14.3457 0 14.3457 Z" />
 </g>
 <g transform="translate(876.193, 62.2969)" style="fill:#000000; fill-rule:evenodd; stroke:none; stroke-width:2; stroke-linecap:butt; stroke-linejoin:miter; stroke-dasharray:none;" >
  <path d="M4.911 0 C5.649 0 6.364 0.1738 7.056 0.5234 C7.748 0.872 8.276 1.3242 8.638 1.8779 C8.988 2.4072 9.22 3.0234 9.336 3.7275 C9.44 4.2109 9.493 4.9795 9.493 6.0351 C9.493 6.0351 1.885 6.0351 1.885 6.0351 C1.917 7.0986 2.165 7.9521 2.631 8.5957 C3.096 9.2383 3.816 9.5605 4.791 9.5605 C5.703 9.5605 6.429 9.2558 6.972 8.6474 C7.276 8.2949 7.491 7.8857 7.618 7.4219 C7.618 7.4219 9.346 7.4219 9.346 7.4219 C9.3 7.8056 9.149 8.2334 8.892 8.706 C8.634 9.1777 8.347 9.5635 8.031 9.8633 C7.501 10.3838 6.845 10.7353 6.064 10.9179 C5.643 11.0215 5.168 11.0742 4.639 11.0742 C3.345 11.0742 2.248 10.5996 1.349 9.6513 C0.45 8.7031 0 7.376 0 5.6689 C0 3.9873 0.453 2.622 1.359 1.5732 C2.264 0.5244 3.449 0 4.911 0 Z M1.924 4.6386 C1.924 4.6386 7.686 4.6386 7.686 4.6386 C7.615 3.874 7.45 3.2636 7.192 2.8066 C6.714 1.957 5.916 1.5332 4.8 1.5332 C3.999 1.5332 3.328 1.8252 2.786 2.4092 C2.244 2.9941 1.955 3.7373 1.924 4.6386 Z" />
 </g>
 <g transform="translate(886.681, 62.5322)" style="fill:#000000; fill-rule:evenodd; stroke:none; stroke-width:2; stroke-linecap:butt; stroke-linejoin:miter; stroke-dasharray:none;" >
  <path d="M0 0 C0 0 1.923 0 1.923 0 C1.923 0 3.935 8.2422 3.935 8.2422 C3.935 8.2422 5.976 0 5.976 0 C5.976 0 7.949 0 7.949 0 C7.949 0 10 8.1934 10 8.1934 C10 8.1934 12.138 0 12.138 0 C12.138 0 13.896 0 13.896 0 C13.896 0 10.859 10.459 10.859 10.459 C10.859 10.459 9.033 10.459 9.033 10.459 C9.033 10.459 6.904 2.3633 6.904 2.3633 C6.904 2.3633 4.843 10.459 4.843 10.459 C4.843 10.459 3.017 10.459 3.017 10.459 C3.017 10.459 0 0 0 0 Z" />
 </g>
 <g transform="translate(901.645, 62.2578)" style="fill:#000000; fill-rule:evenodd; stroke:none; stroke-width:2; stroke-linecap:butt; stroke-linejoin:miter; stroke-dasharray:none;" >
  <path d="M0 7.4512 C0 7.4512 1.689 7.4512 1.689 7.4512 C1.742 8.0371 1.891 8.4863 2.137 8.7988 C2.588 9.3652 3.373 9.6484 4.489 9.6484 C5.154 9.6484 5.739 9.5068 6.244 9.2236 C6.749 8.9404 7.001 8.502 7.001 7.9102 C7.001 7.461 6.799 7.1192 6.396 6.8848 C6.137 6.7412 5.628 6.5752 4.868 6.3867 C4.868 6.3867 3.448 6.0352 3.448 6.0352 C2.542 5.8135 1.874 5.5664 1.443 5.293 C0.675 4.8174 0.293 4.1602 0.293 3.3203 C0.293 2.3301 0.653 1.5293 1.376 0.918 C2.098 0.3057 3.07 0 4.291 0 C5.887 0 7.039 0.4619 7.744 1.3867 C8.173 1.9561 8.389 2.5684 8.389 3.2246 C8.389 3.2432 8.388 3.2627 8.388 3.2813 C8.388 3.2813 6.728 3.2813 6.728 3.2813 C6.694 2.8858 6.551 2.5264 6.297 2.2031 C5.884 1.7432 5.167 1.5137 4.148 1.5137 C3.468 1.5137 2.954 1.6397 2.604 1.8926 C2.254 2.1455 2.08 2.4795 2.08 2.8945 C2.08 3.3486 2.309 3.7119 2.769 3.9844 C3.034 4.1475 3.425 4.2901 3.943 4.4141 C3.943 4.4141 5.126 4.6973 5.126 4.6973 C6.414 5.0029 7.276 5.2988 7.714 5.586 C8.398 6.0352 8.74 6.7412 8.74 7.7051 C8.74 8.6358 8.381 9.4395 7.667 10.1172 C6.952 10.794 5.862 11.1328 4.399 11.1328 C2.824 11.1328 1.708 10.7793 1.052 10.0733 C0.396 9.3662 0.045 8.4922 0 7.4512 Z" />
 </g>
 <g transform="translate(912.152, 62.2773)" style="fill:#000000; fill-rule:evenodd; stroke:none; stroke-width:2; stroke-linecap:butt; stroke-linejoin:miter; stroke-dasharray:none;" >
  <path d="M4.556 9.5313 C5.377 9.5313 6.06 9.1875 6.605 8.501 C7.15 7.8135 7.422 6.7872 7.422 5.42 C7.422 4.586 7.301 3.8702 7.06 3.2715 C6.603 2.1192 5.769 1.543 4.556 1.543 C3.336 1.543 2.501 2.1514 2.051 3.3692 C1.81 4.0196 1.69 4.8467 1.69 5.8497 C1.69 6.6563 1.81 7.3438 2.051 7.9102 C2.508 8.9903 3.342 9.5313 4.556 9.5313 Z M0 14.8926 C0 14.8926 0 0.3028 0 0.3028 C0 0.3028 1.719 0.3028 1.719 0.3028 C1.719 0.3028 1.719 1.6895 1.719 1.6895 C2.071 1.2139 2.455 0.8457 2.872 0.586 C3.465 0.1954 4.163 0 4.965 0 C6.152 0 7.159 0.4541 7.987 1.3623 C8.815 2.2706 9.229 3.5674 9.229 5.2539 C9.229 7.5323 8.631 9.1602 7.437 10.1368 C6.679 10.7549 5.798 11.0645 4.793 11.0645 C4.003 11.0645 3.34 10.8916 2.805 10.5469 C2.492 10.3516 2.143 10.0157 1.758 9.5411 C1.758 9.5411 1.758 14.8926 1.758 14.8926 C1.758 14.8926 0 14.8926 0 14.8926 Z" />
 </g>
 <g transform="translate(922.801, 62.2773)" style="fill:#000000; fill-rule:evenodd; stroke:none; stroke-width:2; stroke-linecap:butt; stroke-linejoin:miter; stroke-dasharray:none;" >
  <path d="M1.836 7.9327 C1.836 8.4395 2.021 8.8389 2.392 9.1319 C2.763 9.4239 3.203 9.5704 3.711 9.5704 C4.329 9.5704 4.928 9.4268 5.508 9.1407 C6.484 8.6661 6.972 7.8897 6.972 6.8106 C6.972 6.8106 6.972 5.3965 6.972 5.3965 C6.758 5.5342 6.481 5.6485 6.143 5.7393 C5.805 5.8311 5.474 5.8965 5.149 5.9356 C5.149 5.9356 4.087 6.0723 4.087 6.0723 C3.45 6.1563 2.971 6.2901 2.651 6.4717 C2.107 6.7774 1.836 7.2637 1.836 7.9327 Z M3.291 4.7334 C3.291 4.7334 6.094 4.3829 6.094 4.3829 C6.497 4.3311 6.767 4.1622 6.904 3.876 C6.982 3.7188 7.021 3.4932 7.021 3.1993 C7.021 2.5987 6.808 2.1622 6.383 1.8907 C5.957 1.6192 5.347 1.4844 4.555 1.4844 C3.639 1.4844 2.989 1.7325 2.606 2.2295 C2.391 2.5049 2.252 2.9141 2.187 3.4571 C2.187 3.4571 0.547 3.4571 0.547 3.4571 C0.579 2.1641 0.997 1.2647 1.8 0.7588 C2.602 0.253 3.534 0 4.595 0 C5.823 0 6.821 0.2344 7.589 0.7032 C8.349 1.1719 8.73 1.9004 8.73 2.8907 C8.73 2.8907 8.73 8.9161 8.73 8.9161 C8.73 9.0987 8.767 9.2452 8.843 9.3555 C8.917 9.4659 9.075 9.5215 9.316 9.5215 C9.394 9.5215 9.482 9.5166 9.58 9.5069 C9.678 9.4971 9.781 9.4825 9.892 9.4629 C9.892 9.4629 9.892 10.7618 9.892 10.7618 C9.619 10.8399 9.41 10.8887 9.267 10.9082 C9.124 10.9278 8.928 10.9375 8.681 10.9375 C8.076 10.9375 7.637 10.7227 7.363 10.293 C7.22 10.0645 7.119 9.7422 7.06 9.3262 C6.702 9.795 6.187 10.2012 5.517 10.5469 C4.846 10.8916 4.107 11.0645 3.301 11.0645 C2.33 11.0645 1.538 10.7696 0.923 10.1817 C0.307 9.5928 0 8.8565 0 7.9717 C0 7.003 0.303 6.252 0.908 5.7188 C1.513 5.1856 2.307 4.8575 3.291 4.7334 Z" />
 </g>
 <g transform="translate(934.393, 62.2773)" style="fill:#000000; fill-rule:evenodd; stroke:none; stroke-width:2; stroke-linecap:butt; stroke-linejoin:miter; stroke-dasharray:none;" >
  <path d="M4.56 9.5313 C5.382 9.5313 6.067 9.1875 6.613 8.501 C7.158 7.8135 7.431 6.7872 7.431 5.42 C7.431 4.586 7.31 3.8702 7.068 3.2715 C6.611 2.1192 5.775 1.543 4.56 1.543 C3.338 1.543 2.502 2.1514 2.051 3.3692 C1.809 4.0196 1.689 4.8467 1.689 5.8497 C1.689 6.6563 1.809 7.3438 2.051 7.9102 C2.508 8.9903 3.344 9.5313 4.56 9.5313 Z M0 14.8926 C0 14.8926 0 0.3028 0 0.3028 C0 0.3028 1.718 0.3028 1.718 0.3028 C1.718 0.3028 1.718 1.6895 1.718 1.6895 C2.07 1.2139 2.456 0.8457 2.874 0.586 C3.467 0.1954 4.166 0 4.968 0 C6.157 0 7.165 0.4541 7.994 1.3623 C8.823 2.2706 9.238 3.5674 9.238 5.2539 C9.238 7.5323 8.639 9.1602 7.443 10.1368 C6.685 10.7549 5.802 11.0645 4.796 11.0645 C4.005 11.0645 3.341 10.8916 2.806 10.5469 C2.492 10.3516 2.142 10.0157 1.757 9.5411 C1.757 9.5411 1.757 14.8926 1.757 14.8926 C1.757 14.8926 0 14.8926 0 14.8926 Z" />
 </g>
 <g transform="translate(944.963, 62.2969)" style="fill:#000000; fill-rule:evenodd; stroke:none; stroke-width:2; stroke-linecap:butt; stroke-linejoin:miter; stroke-dasharray:none;" >
  <path d="M4.905 0 C5.642 0 6.356 0.1738 7.048 0.5234 C7.74 0.872 8.266 1.3242 8.629 1.8779 C8.977 2.4072 9.211 3.0234 9.327 3.7275 C9.431 4.2109 9.482 4.9795 9.482 6.0351 C9.482 6.0351 1.885 6.0351 1.885 6.0351 C1.916 7.0986 2.165 7.9521 2.629 8.5957 C3.094 9.2383 3.813 9.5605 4.787 9.5605 C5.697 9.5605 6.423 9.2558 6.965 8.6474 C7.266 8.2949 7.48 7.8857 7.607 7.4219 C7.607 7.4219 9.336 7.4219 9.336 7.4219 C9.29 7.8056 9.139 8.2334 8.882 8.706 C8.624 9.1777 8.338 9.5635 8.021 9.8633 C7.492 10.3838 6.837 10.7353 6.057 10.9179 C5.637 11.0215 5.163 11.0742 4.634 11.0742 C3.341 11.0742 2.245 10.5996 1.347 9.6513 C0.448 8.7031 0 7.376 0 5.6689 C0 3.9873 0.452 2.622 1.357 1.5732 C2.262 0.5244 3.444 0 4.905 0 Z M1.924 4.6386 C1.924 4.6386 7.676 4.6386 7.676 4.6386 C7.604 3.874 7.44 3.2636 7.183 2.8066 C6.705 1.957 5.909 1.5332 4.795 1.5332 C3.995 1.5332 3.325 1.8252 2.783 2.4092 C2.242 2.9941 1.955 3.7373 1.924 4.6386 Z" />
 </g>
 <g transform="translate(956.838, 62.2969)" style="fill:#000000; fill-rule:evenodd; stroke:none; stroke-width:2; stroke-linecap:butt; stroke-linejoin:miter; stroke-dasharray:none;" >
  <path d="M0 10.7031 C0 10.7031 0 0.2441 0 0.2441 C0 0.2441 1.67 0.2441 1.67 0.2441 C1.67 0.2441 1.67 2.041 1.67 2.041 C1.807 1.6894 2.141 1.2607 2.676 0.7568 C3.209 0.2519 3.824 0 4.521 0 C4.554 0 4.609 0.0029 4.687 0.0097 C4.766 0.0156 4.898 0.0293 5.088 0.0488 C5.088 0.0488 5.088 1.9043 5.088 1.9043 C4.983 1.8847 4.888 1.8711 4.8 1.8652 C4.712 1.8584 4.615 1.8554 4.512 1.8554 C3.626 1.8554 2.945 2.1406 2.471 2.7099 C1.995 3.2812 1.758 3.9375 1.758 4.6806 C1.758 4.6806 1.758 10.7031 1.758 10.7031 C1.758 10.7031 0 10.7031 0 10.7031 Z" />
 </g>
 <g transform="translate(866, 121.264)" style="fill:none; stroke:#000000; stroke-width:2; stroke-linecap:round; stroke-linejoin:round; stroke-dasharray:none;" >
  <path d="M0 44.215 C0 44.215 30.269 44.215 30.269 44.215 C30.269 44.215 30.269 4 30.269 4 C30.269 4 30.269 0 30.269 0 " />
 </g>
 <g transform="translate(890.269, 105.264)" style="fill:#000000; fill-rule:nonzero; stroke:none; stroke-width:1; stroke-linecap:butt; stroke-linejoin:miter; stroke-dasharray:none;" >
  <path d="M6 0 C6 0 0 16 0 16 C0 16 12 16 12 16 C12 16 6 0 6 0 Z" />
 </g>
 <g transform="translate(890.269, 105.264)" style="fill:none; stroke:#000000; stroke-width:2; stroke-linecap:butt; stroke-linejoin:miter; stroke-dasharray:none;" >
  <path d="M6 0 C6 0 0 16 0 16 C0 16 12 16 12 16 C12 16 6 0 6 0 Z" />
 </g>
 <g transform="translate(957.709, 172.121)" style="fill:#000000; fill-rule:evenodd; stroke:none; stroke-width:2; stroke-linecap:butt; stroke-linejoin:miter; stroke-dasharray:none;" >
  <path d="M0 2.129 C0 2.129 0 0 0 0 C0 0 2.041 0 2.041 0 C2.041 0 2.041 2.129 2.041 2.129 C2.041 2.129 0 2.129 0 2.129 Z" />
 </g>
 <g transform="translate(963.219, 172.121)" style="fill:#000000; fill-rule:evenodd; stroke:none; stroke-width:2; stroke-linecap:butt; stroke-linejoin:miter; stroke-dasharray:none;" >
  <path d="M0 2.129 C0 2.129 0 0 0 0 C0 0 2.041 0 2.041 0 C2.041 0 2.041 2.129 2.041 2.129 C2.041 2.129 0 2.129 0 2.129 Z" />
 </g>
 <g transform="translate(968.719, 172.121)" style="fill:#000000; fill-rule:evenodd; stroke:none; stroke-width:2; stroke-linecap:butt; stroke-linejoin:miter; stroke-dasharray:none;" >
  <path d="M0 2.129 C0 2.129 0 0 0 0 C0 0 2.041 0 2.041 0 C2.041 0 2.041 2.129 2.041 2.129 C2.041 2.129 0 2.129 0 2.129 Z" />
 </g>
 <g transform="translate(974.459, 172.121)" style="fill:#000000; fill-rule:evenodd; stroke:none; stroke-width:2; stroke-linecap:butt; stroke-linejoin:miter; stroke-dasharray:none;" >
  <path d="M0 2.129 C0 2.129 0 0 0 0 C0 0 2.041 0 2.041 0 C2.041 0 2.041 2.129 2.041 2.129 C2.041 2.129 0 2.129 0 2.129 Z" />
 </g>
</svg>
