<?xml version="1.0" encoding="UTF-8" standalone="no"?>
<!-- Created with Inkscape (http://www.inkscape.org/) -->
<svg
   xmlns:dc="http://purl.org/dc/elements/1.1/"
   xmlns:cc="http://web.resource.org/cc/"
   xmlns:rdf="http://www.w3.org/1999/02/22-rdf-syntax-ns#"
   xmlns:svg="http://www.w3.org/2000/svg"
   xmlns="http://www.w3.org/2000/svg"
   xmlns:sodipodi="http://inkscape.sourceforge.net/DTD/sodipodi-0.dtd"
   xmlns:inkscape="http://www.inkscape.org/namespaces/inkscape"
   width="750"
   height="400"
   id="svg2"
   sodipodi:version="0.32"
   inkscape:version="0.43"
   sodipodi:docbase="/home/linas/src/fractal/paper/hurwitz"
   sodipodi:docname="monodromy.svg"
   version="1.0">
  <defs
     id="defs4">
    <marker
       inkscape:stockid="DistanceOut"
       orient="auto"
       refY="0.0"
       refX="0.0"
       id="DistanceOut"
       style="overflow:visible">
      <g
         id="g3201"
         transform="scale(-0.6,0.6) translate(8,0)">
        <path
           id="path3203"
           d="M 0.0,0.0 L 5.0,-5.0 L -12.5,0.0 L 5.0,5.0 L 0.0,0.0 z "
           style="fill-rule:evenodd;stroke:#000000;stroke-width:1.0pt;marker-start:none" />
        <path
           id="path3205"
           d="M -14.759949,-7 L -14.759949,65"
           style="fill:none;fill-opacity:0.75000000;fill-rule:evenodd;stroke:#000000;stroke-width:1.2pt;marker-start:none" />
      </g>
    </marker>
    <marker
       inkscape:stockid="DistanceIn"
       orient="auto"
       refY="0.0"
       refX="0.0"
       id="DistanceIn"
       style="overflow:visible">
      <g
         id="g3208"
         transform="scale(0.6,0.6) translate(8,0)">
        <path
           id="path3210"
           d="M 0.0,0.0 L 5.0,-5.0 L -12.5,0.0 L 5.0,5.0 L 0.0,0.0 z "
           style="fill-rule:evenodd;stroke:#000000;stroke-width:1.0pt;marker-start:none" />
        <path
           id="path3212"
           d="M -14.759949,-7 L -14.759949,65"
           style="fill:none;fill-opacity:0.75000000;fill-rule:evenodd;stroke:#000000;stroke-width:1.2pt;marker-start:none" />
      </g>
    </marker>
    <marker
       inkscape:stockid="Club"
       orient="auto"
       refY="0.0"
       refX="0.0"
       id="Club"
       style="overflow:visible">
      <path
         id="path3093"
         d="M -1.5971367,-7.0977635 C -3.4863874,-7.0977635 -5.0235187,-5.5606321 -5.0235187,-3.6713813 C -5.0235187,-3.0147015 -4.7851656,-2.4444556 -4.4641095,-1.9232271 C -4.5028609,-1.8911157 -4.5437814,-1.8647646 -4.5806531,-1.8299921 C -5.2030765,-2.6849849 -6.1700514,-3.2751330 -7.3077730,-3.2751330 C -9.1970245,-3.2751331 -10.734155,-1.7380016 -10.734155,0.15124914 C -10.734155,2.0404999 -9.1970245,3.5776313 -7.3077730,3.5776313 C -6.3143268,3.5776313 -5.4391540,3.1355702 -4.8137404,2.4588126 C -4.9384274,2.8137041 -5.0235187,3.1803000 -5.0235187,3.5776313 C -5.0235187,5.4668819 -3.4863874,7.0040135 -1.5971367,7.0040135 C 0.29211394,7.0040135 1.8292454,5.4668819 1.8292454,3.5776313 C 1.8292454,2.7842354 1.5136868,2.0838028 1.0600576,1.5031550 C 2.4152718,1.7663868 3.7718375,2.2973711 4.7661444,3.8340272 C 4.0279463,3.0958289 3.5540908,1.7534117 3.5540908,-0.058529361 L 2.9247554,-0.10514681 L 3.5074733,-0.12845553 C 3.5074733,-1.9403966 3.9580199,-3.2828138 4.6962183,-4.0210121 C 3.7371277,-2.5387813 2.4390549,-1.9946496 1.1299838,-1.7134486 C 1.5341802,-2.2753578 1.8292454,-2.9268556 1.8292454,-3.6713813 C 1.8292454,-5.5606319 0.29211394,-7.0977635 -1.5971367,-7.0977635 z "
         style="fill-rule:evenodd;stroke:#000000;stroke-width:0.74587913pt;marker-start:none"
         transform="scale(0.6)" />
    </marker>
    <marker
       inkscape:stockid="Torso"
       orient="auto"
       refY="0.0"
       refX="0.0"
       id="Torso"
       style="overflow:visible">
      <g
         id="g3096"
         transform="scale(0.7)">
        <path
           id="path3098"
           d="M -4.7792281,-3.2395420 C -2.4288541,-2.8736027 0.52103922,-1.3019943 0.25792722,0.38794346 C -0.0051877922,2.0778819 -2.2126741,2.6176539 -4.5630471,2.2517169 C -6.9134221,1.8857769 -8.5210350,0.75201414 -8.2579220,-0.93792336 C -7.9948090,-2.6278615 -7.1296041,-3.6054813 -4.7792281,-3.2395420 z "
           style="fill:none;fill-opacity:0.75000000;fill-rule:evenodd;stroke:#000000;stroke-width:1.2500000;marker-start:none;marker-mid:none;marker-end:none" />
        <path
           id="path3100"
           d="M 4.4598789,0.088665736 C -2.5564571,-4.3783320 5.2248769,-3.9061806 -0.84829578,-8.7197331"
           style="fill:none;fill-opacity:0.75000000;fill-rule:evenodd;stroke:#000000;stroke-width:1.0000000pt;marker-end:none" />
        <path
           id="path3102"
           d="M 4.9298719,0.057520736 C -1.3872731,1.7494689 1.8027579,5.4782079 -4.9448731,7.5462725"
           style="fill:none;fill-opacity:0.75000000;fill-rule:evenodd;stroke:#000000;stroke-width:1.0000000pt;marker-start:none;marker-end:none" />
        <rect
           id="rect3104"
           transform="matrix(0.527536,-0.849533,0.887668,0.460484,0.000000,0.000000)"
           y="-1.7408575"
           x="-10.391706"
           height="2.7608147"
           width="2.6366582"
           style="fill-rule:evenodd;stroke-width:1.0000000pt;marker-end:none" />
        <rect
           id="rect3106"
           transform="matrix(0.671205,-0.741272,0.790802,0.612072,0.000000,0.000000)"
           y="-7.9629307"
           x="4.9587269"
           height="2.8614161"
           width="2.7327356"
           style="fill-rule:evenodd;stroke-width:1.0000000pt;marker-end:none" />
        <path
           id="path3108"
           transform="matrix(6.793608e-17,-1.109517,1.109517,6.793608e-17,25.96648,19.71619)"
           d="M 16.779951 -28.685045 A 0.60731727 0.60731727 0 1 0 15.565317,-28.685045 A 0.60731727 0.60731727 0 1 0 16.779951 -28.685045 z"
           sodipodi:ry="0.60731727"
           sodipodi:rx="0.60731727"
           sodipodi:cy="-28.685045"
           sodipodi:cx="16.172634"
           style="fill:#ff0000;fill-opacity:0.75000000;fill-rule:evenodd;stroke:#000000;stroke-width:1.0000000pt;marker-start:none;marker-end:none"
           sodipodi:type="arc" />
        <path
           id="path3110"
           transform="matrix(6.793608e-17,-1.109517,1.109517,6.793608e-17,26.82450,16.99126)"
           d="M 16.779951 -28.685045 A 0.60731727 0.60731727 0 1 0 15.565317,-28.685045 A 0.60731727 0.60731727 0 1 0 16.779951 -28.685045 z"
           sodipodi:ry="0.60731727"
           sodipodi:rx="0.60731727"
           sodipodi:cy="-28.685045"
           sodipodi:cx="16.172634"
           style="fill:#ff0000;fill-opacity:0.75000000;fill-rule:evenodd;stroke:#000000;stroke-width:1.0000000pt;marker-start:none;marker-end:none"
           sodipodi:type="arc" />
      </g>
    </marker>
    <marker
       inkscape:stockid="Legs"
       orient="auto"
       refY="0.0"
       refX="0.0"
       id="Legs"
       style="overflow:visible">
      <g
         id="g3113"
         transform="scale(-0.7)">
        <g
           id="g3115"
           transform="matrix(-1.836909e-16,-1.000000,-1.000000,1.836909e-16,20.70862,21.31391)">
          <path
             id="path3117"
             d="M 21.221250,20.675360 C 14.311099,25.396517 18.766725,27.282204 15.380179,34.118595"
             style="fill:none;fill-opacity:0.75000000;fill-rule:evenodd;stroke:#000000;stroke-width:1.0000000pt;marker-start:none;marker-end:none" />
          <path
             id="path3119"
             d="M 21.398110,20.548120 C 20.037601,28.895644 24.934182,29.318060 25.903151,34.373078"
             style="fill:none;fill-opacity:0.75000000;fill-rule:evenodd;stroke:#000000;stroke-width:1.0000000pt;marker-start:none;marker-end:none" />
        </g>
        <path
           id="path3121"
           d="M -14.090070,-6.7318716 L -15.012238,-2.6884886 L -11.049487,-3.9115586 L -14.090070,-6.7318716 z "
           style="fill:#030300;fill-rule:evenodd;stroke-width:1.0000000pt;marker-end:none" />
        <path
           id="path3123"
           d="M -15.215679,4.5567534 L -13.341552,8.2563664 L -11.074678,4.7835114 L -15.215679,4.5567534 z "
           style="fill:#030300;fill-rule:evenodd;stroke-width:1.0000000pt;marker-end:none" />
      </g>
    </marker>
    <marker
       inkscape:stockid="CurveOut"
       orient="auto"
       refY="0.0"
       refX="0.0"
       id="CurveOut"
       style="overflow:visible">
      <path
         id="path3135"
         d="M -5.4129913,-5.0456926 C -2.6529913,-5.0456926 -0.41299131,-2.8056926 -0.41299131,-0.045692580 C -0.41299131,2.7143074 -2.6529913,4.9543074 -5.4129913,4.9543074"
         style="fill:none;fill-rule:evenodd;stroke:#000000;stroke-width:1.0pt;marker-start:none;marker-end:none"
         transform="scale(0.6)" />
    </marker>
    <marker
       inkscape:stockid="TriangleOutM"
       orient="auto"
       refY="0.0"
       refX="0.0"
       id="TriangleOutM"
       style="overflow:visible">
      <path
         id="path3159"
         d="M 5.77,0.0 L -2.88,5.0 L -2.88,-5.0 L 5.77,0.0 z "
         style="fill-rule:evenodd;stroke:#000000;stroke-width:1.0pt;marker-start:none"
         transform="scale(0.4)" />
    </marker>
    <marker
       inkscape:stockid="Arrow2Sstart"
       orient="auto"
       refY="0.0"
       refX="0.0"
       id="Arrow2Sstart"
       style="overflow:visible">
      <path
         id="path3233"
         style="font-size:12.0;fill-rule:evenodd;stroke-width:0.62500000;stroke-linejoin:round"
         d="M 8.7185878,4.0337352 L -2.2072895,0.016013256 L 8.7185884,-4.0017078 C 6.9730900,-1.6296469 6.9831476,1.6157441 8.7185878,4.0337352 z "
         transform="scale(0.3) translate(-5,0)" />
    </marker>
    <marker
       inkscape:stockid="Arrow1Lend"
       orient="auto"
       refY="0.0"
       refX="0.0"
       id="Arrow1Lend"
       style="overflow:visible;">
      <path
         id="path3260"
         d="M 0.0,0.0 L 5.0,-5.0 L -12.5,0.0 L 5.0,5.0 L 0.0,0.0 z "
         style="fill-rule:evenodd;stroke:#000000;stroke-width:1.0pt;marker-start:none;"
         transform="scale(0.8) rotate(180)" />
    </marker>
    <marker
       inkscape:stockid="Arrow2Send"
       orient="auto"
       refY="0.0"
       refX="0.0"
       id="Arrow2Send"
       style="overflow:visible;">
      <path
         id="path3230"
         style="font-size:12.0;fill-rule:evenodd;stroke-width:0.62500000;stroke-linejoin:round;"
         d="M 8.7185878,4.0337352 L -2.2072895,0.016013256 L 8.7185884,-4.0017078 C 6.9730900,-1.6296469 6.9831476,1.6157441 8.7185878,4.0337352 z "
         transform="scale(0.3) rotate(180) translate(-5,0)" />
    </marker>
    <marker
       inkscape:stockid="Arrow2Mend"
       orient="auto"
       refY="0.0"
       refX="0.0"
       id="Arrow2Mend"
       style="overflow:visible;">
      <path
         id="path3236"
         style="font-size:12.0;fill-rule:evenodd;stroke-width:0.62500000;stroke-linejoin:round;"
         d="M 8.7185878,4.0337352 L -2.2072895,0.016013256 L 8.7185884,-4.0017078 C 6.9730900,-1.6296469 6.9831476,1.6157441 8.7185878,4.0337352 z "
         transform="scale(0.6) rotate(180) translate(-5,0)" />
    </marker>
    <marker
       inkscape:stockid="Arrow2Lend"
       orient="auto"
       refY="0.0"
       refX="0.0"
       id="Arrow2Lend"
       style="overflow:visible;">
      <path
         id="path3242"
         style="font-size:12.0;fill-rule:evenodd;stroke-width:0.62500000;stroke-linejoin:round;"
         d="M 8.7185878,4.0337352 L -2.2072895,0.016013256 L 8.7185884,-4.0017078 C 6.9730900,-1.6296469 6.9831476,1.6157441 8.7185878,4.0337352 z "
         transform="scale(1.1) rotate(180) translate(-5,0)" />
    </marker>
  </defs>
  <sodipodi:namedview
     id="base"
     pagecolor="#ffffff"
     bordercolor="#666666"
     borderopacity="1.0"
     inkscape:pageopacity="0.0"
     inkscape:pageshadow="2"
     inkscape:zoom="1.2996029"
     inkscape:cx="440.24569"
     inkscape:cy="268.63187"
     inkscape:document-units="px"
     inkscape:current-layer="layer1"
     showgrid="false"
     inkscape:grid-points="false"
     inkscape:grid-bbox="false"
     inkscape:window-width="1368"
     inkscape:window-height="1000"
     inkscape:window-x="24"
     inkscape:window-y="64" />
  <metadata
     id="metadata7">
    <rdf:RDF>
      <cc:Work
         rdf:about="">
        <dc:format>image/svg+xml</dc:format>
        <dc:type
           rdf:resource="http://purl.org/dc/dcmitype/StillImage" />
        <dc:title>Polylog monodromy</dc:title>
        <dc:date>21 March 2007</dc:date>
        <dc:creator>
          <cc:Agent>
            <dc:title>Linas Vepstas</dc:title>
          </cc:Agent>
        </dc:creator>
        <dc:description>Monodromy of the polylogarithm</dc:description>
        <cc:license
           rdf:resource="http://creativecommons.org/licenses/GPL/2.0/" />
      </cc:Work>
      <cc:License
         rdf:about="http://creativecommons.org/licenses/GPL/2.0/">
        <cc:permits
           rdf:resource="http://web.resource.org/cc/Reproduction" />
        <cc:permits
           rdf:resource="http://web.resource.org/cc/Distribution" />
        <cc:requires
           rdf:resource="http://web.resource.org/cc/Notice" />
        <cc:permits
           rdf:resource="http://web.resource.org/cc/DerivativeWorks" />
        <cc:requires
           rdf:resource="http://web.resource.org/cc/ShareAlike" />
        <cc:requires
           rdf:resource="http://web.resource.org/cc/SourceCode" />
      </cc:License>
    </rdf:RDF>
  </metadata>
  <g
     inkscape:label="Layer 1"
     inkscape:groupmode="layer"
     id="layer1">
    <path
       sodipodi:type="arc"
       style="stroke-width:1;stroke-miterlimit:4;stroke-dasharray:none"
       id="path1325"
       sodipodi:cx="145"
       sodipodi:cy="848.81647"
       sodipodi:rx="4"
       sodipodi:ry="4.0721774"
       d="M 149,848.81647 A 4,4.0721774 0 1 1 148.99987,848.78414"
       sodipodi:start="0"
       sodipodi:end="6.2752456"
       sodipodi:open="true"
       transform="matrix(1.005214,0,0,1.008022,11.58512,-643.8221)" />
    <path
       sodipodi:type="arc"
       style="stroke-width:1;stroke-miterlimit:4;stroke-dasharray:none"
       id="path1327"
       sodipodi:cx="145"
       sodipodi:cy="848.81647"
       sodipodi:rx="4"
       sodipodi:ry="4.0721774"
       d="M 149,848.81647 A 4,4.0721774 0 1 1 148.99987,848.78414"
       sodipodi:start="0"
       sodipodi:end="6.2752456"
       sodipodi:open="true"
       transform="matrix(1.005214,0,0,1.008022,396.0404,-642.0384)" />
    <path
       style="fill:none;fill-opacity:0.75;fill-rule:evenodd;stroke:#000000;stroke-width:2.5;stroke-linecap:butt;stroke-linejoin:round;marker-start:none;marker-mid:url(#Arrow2Mend);marker-end:none;stroke-miterlimit:4;stroke-dasharray:none;stroke-opacity:1"
       d="M 233.19568,325.78278 C 336.03045,276.81328 437.95294,225.85439 541.39309,178.2027 C 582.83469,166.80675 601.0959,231.0402 557.97475,242.36528 C 516.87148,262.56524 474.30558,279.76198 432.85018,299.36417 C 355.24497,333.75142 277.58147,370.27285 194.86384,390.54005 C 125.53026,402.30607 42.481206,373.22497 14.059391,304.8508 C -0.91890155,261.72978 6.86953,215.29992 4.047651,170.65467 C 4.4776324,126.0785 3.4073194,71.912908 42.077222,41.604598 C 85.763648,10.762773 142.19194,15.846412 192.9226,12.200886 C 294.7842,10.350719 396.66874,8.2774134 498.53298,7.687582 C 565.52248,9.1893588 641.60214,10.662312 693.56933,59.197483 C 730.16206,91.502062 744.44981,140.86501 744.16832,188.33542 C 744.49447,229.20212 743.193,271.64048 729.08609,310.32382 C 702.80209,364.75704 636.80369,385.20628 580.14773,378.8825 C 505.04524,374.53329 442.86091,328.72158 379.29948,293.61719 C 309.38035,253.00167 240.12705,211.14869 168.4746,173.611 C 127.98984,156.34776 97.953432,216.77569 135.93046,239.23155 C 168.13227,264.72176 206.90396,280.32251 243.34633,298.79591 C 286.06755,318.1367 327.53867,341.00831 371.87495,356.34888 C 423.36478,368.55859 469.36917,335.8332 514.33356,316.6207 C 552.37887,297.96379 594.19009,280.84781 622.36424,248.19877 C 649.06088,205.50677 622.34103,145.94703 577.27234,128.58344 C 531.37148,107.8812 483.24378,135.57604 442.44321,155.68878 C 354.24139,200.71178 269.35534,252.23984 179.47813,293.92512 C 145.15746,308.48361 101.07207,291.64368 90.914178,254.48279 C 74.624644,212.91536 78.607737,157.88168 113.90214,127.24362 C 144.88004,105.09953 185.4189,118.26574 214.35481,137.15934 C 324.6786,194.19079 430.31793,259.98014 541.29369,315.70599 C 576.54164,334.00852 622.65273,331.99375 651.97589,303.31966 C 715.29062,240.44663 694.99737,117.40341 613.73295,79.219572 C 547.82079,51.719309 474.73652,63.263919 405.29893,60.039364 C 313.95027,60.767994 222.22975,57.558407 131.19125,66.059884 C 94.139514,71.589702 55.723408,96.064285 50.074613,135.78426 C 40.188333,181.37881 43.364538,229.34318 53.172208,274.60231 C 64.447987,310.54898 98.084864,336.6527 135.27302,340.54319 C 168.33532,348.28151 203.46204,341.43841 233.19568,325.78278 z "
       id="path1333" />
  </g>
</svg>
