<?xml version="1.0" encoding="UTF-8" standalone="no"?>
<!-- Created with Inkscape (http://www.inkscape.org/) -->
<svg
   xmlns:dc="http://purl.org/dc/elements/1.1/"
   xmlns:cc="http://web.resource.org/cc/"
   xmlns:rdf="http://www.w3.org/1999/02/22-rdf-syntax-ns#"
   xmlns:svg="http://www.w3.org/2000/svg"
   xmlns="http://www.w3.org/2000/svg"
   xmlns:sodipodi="http://inkscape.sourceforge.net/DTD/sodipodi-0.dtd"
   xmlns:inkscape="http://www.inkscape.org/namespaces/inkscape"
   width="744.09448819"
   height="1052.3622047"
   id="svg2"
   sodipodi:version="0.32"
   inkscape:version="0.43"
   sodipodi:docbase="/home/linas/src/fractal/paper/hurwitz"
   sodipodi:docname="monodromy.svg">
  <defs
     id="defs4" />
  <sodipodi:namedview
     id="base"
     pagecolor="#ffffff"
     bordercolor="#666666"
     borderopacity="1.0"
     inkscape:pageopacity="0.0"
     inkscape:pageshadow="2"
     inkscape:zoom="1.2996029"
     inkscape:cx="440.24569"
     inkscape:cy="127.84422"
     inkscape:document-units="px"
     inkscape:current-layer="layer1"
     showgrid="false"
     inkscape:grid-points="false"
     inkscape:grid-bbox="false"
     inkscape:window-width="1368"
     inkscape:window-height="1000"
     inkscape:window-x="24"
     inkscape:window-y="64" />
  <metadata
     id="metadata7">
    <rdf:RDF>
      <cc:Work
         rdf:about="">
        <dc:format>image/svg+xml</dc:format>
        <dc:type
           rdf:resource="http://purl.org/dc/dcmitype/StillImage" />
        <dc:title>Polylog monodromy</dc:title>
        <dc:date>21 March 2007</dc:date>
      </cc:Work>
    </rdf:RDF>
  </metadata>
  <g
     inkscape:label="Layer 1"
     inkscape:groupmode="layer"
     id="layer1">
    <path
       sodipodi:type="arc"
       style="stroke-width:1;stroke-miterlimit:4;stroke-dasharray:none"
       id="path1325"
       sodipodi:cx="145"
       sodipodi:cy="848.81647"
       sodipodi:rx="4"
       sodipodi:ry="4.0721774"
       d="M 149,848.81647 A 4,4.0721774 0 1 1 148.99987,848.78414"
       sodipodi:start="0"
       sodipodi:end="6.2752456"
       sodipodi:open="true"
       transform="translate(0,-1.526462)" />
    <path
       sodipodi:type="arc"
       style="stroke-width:1;stroke-miterlimit:4;stroke-dasharray:none"
       id="path1327"
       sodipodi:cx="145"
       sodipodi:cy="848.81647"
       sodipodi:rx="4"
       sodipodi:ry="4.0721774"
       d="M 149,848.81647 A 4,4.0721774 0 1 1 148.99987,848.78414"
       sodipodi:start="0"
       sodipodi:end="6.2752456"
       sodipodi:open="true"
       transform="translate(384,-0.526462)" />
    <path
       style="fill:none;fill-opacity:0.75;fill-rule:evenodd;stroke:#000000;stroke-width:1px;stroke-linecap:butt;stroke-linejoin:miter;stroke-opacity:1"
       d="M 222,960.36218 C 274.25623,935.2021 477.43429,837.66375 515.60937,819.21164 C 554.64302,800.34453 581.04387,834.5973 568,856.36218 C 554.61843,878.69054 543.00049,878.3689 483.3052,905.84853 C 423.60992,933.32817 285.57224,996.3982 207.70077,1019.1271 C 129.8293,1041.856 65.635125,1013.6025 30.319482,978.65541 C -4.996161,943.7083 -4.9460509,929.5568 -4.7667092,888.55754 C -4.5873675,847.55828 -9.6123479,789.92894 -2.0255759,742.37632 C 5.5611961,694.8237 28.304158,665.51888 92.251707,655.78827 C 156.19926,646.05766 267.09981,648.63054 349.74488,646.6387 C 432.38996,644.64685 524.30389,640.56422 593.86156,653.79666 C 663.41923,667.0291 710.47164,714.97405 722.77027,766.22494 C 735.0689,817.47583 730.47554,858.96549 726.09067,901.41627 C 721.70581,943.86705 708.47027,971.08068 662.61017,997.1215 C 616.75007,1023.1623 535.1762,1015.8499 482.90991,992.04769 C 427.85121,966.97381 191.44231,822.98375 159.88341,810.96442 C 128.32451,798.94509 100.84284,820.98366 108.99472,850.21047 C 117.1466,879.43728 150.72477,890.58128 175.51446,905.50183 C 199.97071,920.22168 279.43345,954.89419 322.41626,976.14627 C 365.39907,997.39834 397.33076,999.60325 441.86474,978.89357 C 486.39871,958.18389 551.7924,930.7477 593.33721,900.21263 C 634.88202,869.67756 622.38349,806.94738 590,781.36218 C 557.61651,755.77697 530.47577,750.38735 488.30982,765.44701 C 446.14387,780.50667 397.08589,809.75011 345.24735,836.7371 C 293.40881,863.7241 222.15998,905.45529 176,925.36218 C 129.84002,945.26908 96.738839,928.2048 81.416372,892.79298 C 66.093905,857.38116 68.718147,808.48145 89,778.36218 C 109.28185,748.2429 134.77857,742.53369 173.50134,758.44551 C 212.22411,774.35733 249.8539,798.67497 312.39112,832.26152 C 374.92834,865.84807 508.07169,946.0085 549.66465,958.5151 C 591.46381,971.0837 637.95424,952.2239 659.61365,910.93152 C 681.27306,869.63914 681.01227,810.89699 655.64284,766.9633 C 630.27341,723.02961 585.28388,701.7666 523.65098,698.60662 C 461.32466,695.41108 191.25624,696.08878 144.00306,699.97592 C 96.61692,703.874 59.06599,718.58937 44.499639,756.40515 C 29.933288,794.22093 33.90974,840.53498 37.095756,880.61269 C 40.281773,920.69041 64.072351,959.25753 103.63635,969.68484 C 143.20035,980.11215 170.67965,985.07165 222,960.36218 z "
       id="path1333"
       sodipodi:nodetypes="czzzzzzzzzzzzzzzzzzzzzzzzzzzzzzzzzzzzz" />
  </g>
</svg>
